<?xml version="1.0" standalone="no"?>
<!DOCTYPE svg PUBLIC "-//W3C//DTD SVG 20010904//EN"
 "http://www.w3.org/TR/2001/REC-SVG-20010904/DTD/svg10.dtd">
<svg version="1.0" xmlns="http://www.w3.org/2000/svg"
 width="596.000000pt" height="596.000000pt" viewBox="0 0 596.000000 596.000000"
 preserveAspectRatio="xMidYMid meet">
<metadata>
Created by potrace 1.14, written by Peter Selinger 2001-2017
</metadata>
<g transform="translate(0.000000,596.000000) scale(0.100000,-0.100000)"
fill="#000000" stroke="none">
<path d="M3605 5942 c-4 -9 -9 -28 -11 -42 -3 -14 -7 -32 -11 -40 -7 -17 -9
-25 -16 -60 -3 -14 -10 -45 -17 -70 -6 -25 -11 -53 -11 -62 0 -10 -5 -18 -11
-18 -5 0 -8 -6 -5 -14 3 -8 3 -17 -1 -20 -3 -4 -7 -17 -9 -29 -2 -12 -6 -29
-10 -37 -8 -19 -12 -39 -15 -67 -1 -13 -6 -23 -10 -23 -3 0 -5 -12 -2 -26 3
-15 1 -23 -5 -20 -11 7 -8 -20 4 -31 4 -4 5 -3 1 4 -3 6 -1 15 5 18 5 4 8 13
5 21 -3 8 1 17 8 20 8 3 13 14 11 25 -2 10 0 21 5 24 4 3 6 14 3 25 -3 11 0
26 6 34 6 7 13 29 14 47 2 19 6 39 9 45 4 6 10 24 12 41 3 16 13 49 21 74 9
24 18 59 21 78 3 19 10 45 15 58 5 13 6 23 3 23 -4 0 -1 6 5 14 7 9 8 17 3 20
-6 3 -13 -2 -17 -12z"/>
<path d="M2511 5834 c0 -11 3 -14 6 -6 3 7 2 16 -1 19 -3 4 -6 -2 -5 -13z"/>
<path d="M2512 5770 c-1 -22 2 -40 6 -40 8 0 7 68 0 76 -3 2 -5 -14 -6 -36z"/>
<path d="M3454 5743 c-3 -16 -13 -48 -21 -73 -8 -25 -17 -56 -19 -70 -5 -33
-10 -52 -17 -70 -3 -8 -16 -53 -27 -100 -26 -103 -100 -360 -142 -490 -16 -52
-31 -99 -33 -105 -1 -5 -5 -17 -8 -25 -5 -14 -30 -89 -32 -100 -1 -3 -5 -13
-8 -22 -16 -41 -20 -54 -22 -63 -5 -18 -85 -225 -94 -243 -6 -9 -18 -36 -27
-59 -10 -24 -21 -43 -24 -43 -4 0 -7 -6 -7 -14 0 -12 -131 -236 -139 -236 -1
0 -9 6 -16 13 -12 12 -92 65 -113 77 -6 3 -2 -3 10 -12 11 -10 27 -25 36 -33
9 -8 19 -15 22 -15 4 0 16 -9 28 -21 19 -19 20 -24 8 -46 -10 -18 -10 -31 -2
-54 7 -17 7 -31 2 -35 -12 -7 -115 20 -186 50 l-58 24 -28 83 c-15 46 -30 98
-33 114 -3 17 -9 49 -15 73 -5 24 -12 67 -15 95 -3 29 -7 59 -9 67 -4 15 -11
78 -20 180 -24 287 -33 459 -40 769 -2 117 -6 216 -9 218 -3 3 -6 -129 -6
-293 -2 -440 -12 -695 -36 -894 -3 -25 -7 -61 -9 -80 -9 -89 -38 -217 -71
-320 -37 -112 -37 -114 -20 -144 24 -41 38 -78 28 -72 -7 4 -33 10 -88 20 -7
1 -19 8 -28 16 -15 12 -18 11 -23 -8 -3 -12 -9 -22 -15 -22 -5 0 -3 -6 4 -14
13 -14 32 -11 23 4 -9 15 17 16 78 4 33 -7 64 -19 69 -26 8 -13 49 -141 54
-168 18 -119 19 -110 -12 -111 -16 -1 -38 -3 -49 -4 -97 -11 -185 -19 -212
-20 -17 0 -35 -3 -39 -7 -4 -5 -2 -8 4 -8 6 0 14 -9 17 -20 3 -11 10 -20 15
-20 5 0 7 6 4 14 -3 8 -2 16 3 19 18 10 281 18 287 8 8 -12 14 -57 21 -157 6
-73 4 -82 -12 -87 -10 -3 -60 -24 -112 -47 -51 -22 -96 -39 -98 -36 -6 6 18
32 32 34 6 1 11 11 11 22 1 11 -2 17 -7 14 -4 -2 -6 -11 -3 -19 4 -10 0 -12
-15 -8 -21 5 -23 8 -24 41 -1 9 -10 25 -21 35 -10 9 -16 20 -13 24 4 3 0 15
-10 25 -13 14 -13 18 -2 18 10 1 9 3 -3 11 -10 5 -15 16 -12 24 4 8 2 15 -4
15 -5 0 -9 7 -8 16 0 9 -5 19 -13 22 -10 3 -12 0 -7 -14 12 -32 26 -107 28
-149 1 -22 6 -43 12 -47 7 -5 5 -13 -6 -25 -10 -9 -20 -14 -24 -10 -11 11 -52
228 -60 322 -10 110 -10 143 1 220 11 81 9 95 -13 115 -11 10 -30 36 -43 57
-12 21 -25 40 -28 43 -13 11 -141 262 -141 275 0 3 -11 31 -25 61 -14 30 -25
58 -25 63 0 5 -11 34 -25 65 -14 31 -25 59 -26 64 -1 4 -5 18 -10 32 -16 43
-18 50 -18 53 1 1 -5 18 -13 37 -8 19 -16 38 -17 42 -1 4 -3 13 -6 20 -17 50
-48 154 -48 158 1 3 -3 10 -7 15 -5 6 -11 22 -14 37 -5 30 -64 224 -76 253 -5
11 -16 46 -25 79 -9 32 -18 56 -21 53 -2 -2 0 -15 5 -29 5 -14 12 -42 15 -63
4 -21 11 -44 17 -52 6 -7 9 -13 6 -13 -3 0 -1 -15 4 -32 12 -39 48 -166 53
-188 2 -8 12 -42 22 -75 10 -33 19 -64 20 -70 2 -5 6 -21 9 -35 6 -24 19 -79
29 -128 3 -13 8 -32 11 -42 3 -10 8 -27 10 -37 2 -10 15 -70 29 -133 13 -63
27 -133 31 -155 25 -160 32 -243 30 -358 l-2 -131 47 -51 c51 -55 120 -156
120 -176 0 -7 6 -20 14 -28 11 -14 114 -256 121 -286 1 -5 5 -18 10 -27 8 -19
-1 -55 -12 -45 -3 4 -12 2 -20 -4 -7 -6 -13 -9 -13 -5 0 4 -13 0 -30 -9 -16
-9 -30 -12 -30 -8 0 5 -4 2 -9 -6 -7 -10 -13 -11 -30 -2 -17 10 -20 9 -15 -4
4 -8 2 -15 -4 -15 -6 0 -13 6 -15 13 -4 9 -6 9 -6 -1 -1 -7 -5 -10 -11 -7 -17
11 -11 -12 7 -26 10 -7 15 -10 11 -5 -4 5 36 24 90 42 53 18 100 30 103 26 6
-8 58 -154 65 -184 2 -10 6 -27 9 -39 2 -12 9 -26 14 -33 6 -7 6 -17 1 -26 -6
-8 -10 -12 -10 -8 0 15 -197 -77 -203 -95 -2 -6 -12 2 -22 18 -10 17 -33 53
-50 80 -17 28 -40 67 -50 88 -11 20 -23 37 -27 37 -5 0 -8 7 -8 15 0 9 -10 32
-23 53 -27 44 -90 174 -117 243 -19 46 -23 63 -35 127 -3 15 -8 39 -11 54 -3
14 -16 33 -28 42 -25 16 -178 166 -211 207 -49 59 -229 305 -250 341 -5 9 -28
43 -50 75 -22 31 -42 62 -45 68 -22 45 -115 176 -118 166 -2 -6 8 -27 22 -45
14 -18 22 -36 19 -40 -4 -3 -1 -6 5 -6 7 0 12 -4 12 -9 0 -5 26 -51 59 -102
32 -52 69 -112 81 -134 119 -208 200 -367 224 -441 9 -28 25 -68 36 -90 11
-21 20 -48 20 -60 0 -48 22 -82 76 -119 30 -21 64 -50 75 -64 11 -14 40 -46
63 -71 50 -52 206 -256 206 -268 0 -5 9 -17 20 -27 23 -21 26 -35 7 -35 -7 0
-21 13 -30 30 -19 32 -37 39 -37 15 0 -8 4 -15 9 -15 12 0 27 -51 30 -96 1
-23 42 -69 60 -69 20 0 7 -20 -34 -53 -61 -50 -167 -165 -195 -211 -14 -22
-30 -41 -36 -41 -18 0 -39 31 -36 54 2 15 0 17 -6 8 -8 -11 -15 -11 -43 1 -36
16 -99 72 -99 88 0 5 -7 9 -16 9 -8 0 -13 4 -10 9 3 5 -4 11 -15 14 -12 3 -18
10 -14 16 3 6 11 8 17 5 7 -5 8 -2 4 5 -5 7 -10 10 -13 7 -3 -3 -14 -1 -24 5
-33 17 -21 -7 22 -49 31 -29 37 -39 23 -37 -55 5 -97 46 -84 81 12 31 2 36
-22 12 -17 -17 -22 -18 -36 -5 -16 13 -48 25 -96 34 -11 2 -25 8 -32 14 -8 7
-14 7 -19 -1 -3 -5 0 -10 8 -10 7 0 27 -13 44 -30 16 -16 42 -34 58 -40 24 -9
27 -14 21 -42 -6 -30 -5 -30 12 -15 10 10 24 17 32 17 22 0 100 -54 96 -66 -2
-6 11 -16 30 -22 29 -9 34 -8 34 6 1 14 4 13 18 -4 10 -12 28 -26 40 -33 17
-9 21 -18 17 -32 -6 -18 -5 -19 13 -8 16 10 26 10 46 1 l26 -11 -23 -43 c-21
-40 -68 -149 -74 -173 -19 -76 -32 -108 -44 -116 -11 -7 -11 -9 -1 -9 10 0 12
-8 6 -33 -9 -39 -13 -288 -5 -302 11 -21 11 -49 -1 -57 -7 -4 -28 -8 -45 -8
-26 0 -33 4 -33 20 0 11 6 18 13 16 6 -1 8 -1 4 2 -4 2 -2 11 5 20 9 11 5 10
-13 -3 -15 -11 -24 -26 -22 -36 3 -11 -11 -23 -46 -41 -28 -14 -46 -19 -40
-11 9 10 4 13 -27 13 l-37 0 22 -24 c19 -20 30 -23 60 -19 20 3 44 10 53 14
10 6 19 5 23 -1 10 -15 22 -12 27 8 4 12 16 18 41 20 35 2 37 1 48 -40 7 -24
13 -49 15 -55 1 -7 21 -51 43 -97 23 -47 41 -87 41 -90 0 -2 -13 -7 -29 -11
-33 -7 -81 -47 -81 -67 0 -22 30 -58 48 -58 28 0 63 30 79 68 13 32 16 34 25
18 18 -32 41 -59 110 -126 87 -85 114 -107 138 -115 11 -4 18 -11 15 -16 -4
-5 1 -9 9 -9 21 0 20 -12 -3 -37 -11 -12 -17 -23 -15 -26 9 -9 -35 -19 -48
-11 -9 6 -9 3 1 -9 11 -14 11 -21 -3 -42 -9 -13 -16 -31 -16 -39 0 -9 -6 -13
-14 -10 -21 8 -28 -26 -10 -53 18 -29 35 -20 39 20 2 14 13 39 25 55 19 26 26
29 46 21 28 -10 31 -4 9 17 -16 17 -20 44 -7 44 5 0 14 12 21 26 10 23 14 24
28 13 9 -8 18 -13 20 -11 2 1 17 -5 33 -13 17 -9 30 -13 30 -9 0 4 6 2 13 -4
11 -9 123 -45 181 -59 58 -13 161 -20 251 -15 55 2 117 5 137 6 21 0 38 6 38
11 0 6 7 2 15 -8 15 -21 10 -45 -14 -64 -14 -11 -14 -12 4 -13 14 0 23 -10 31
-35 6 -19 8 -35 4 -35 -4 0 -7 -32 -7 -70 0 -39 5 -70 10 -70 5 0 7 6 4 13 -3
8 -1 20 3 27 6 10 13 2 25 -26 14 -34 15 -42 3 -64 -8 -14 -19 -25 -25 -25 -6
0 -15 -3 -19 -8 -4 -4 5 -7 20 -7 20 0 29 -6 34 -22 3 -13 4 -25 3 -27 -2 -2
1 -7 6 -10 17 -11 41 -76 68 -181 15 -58 27 -111 28 -117 0 -7 4 -13 9 -13 4
0 7 -3 7 -7 -1 -5 -1 -17 0 -28 1 -16 3 -17 11 -5 5 8 6 17 2 20 -4 3 -8 10
-9 15 -7 45 -14 83 -33 165 -13 52 -23 114 -25 137 -1 23 -7 49 -14 57 -11 13
-9 17 12 25 27 10 45 31 27 31 -6 0 -8 12 -5 32 4 20 1 34 -7 39 -8 6 -9 9 -2
9 8 0 9 11 4 35 -5 23 -4 35 3 35 8 0 8 3 0 11 -6 6 -9 18 -6 25 3 8 1 14 -4
14 -12 0 -11 -120 1 -139 7 -11 5 -13 -8 -8 -14 5 -15 3 -6 -13 14 -26 13 -40
-4 -40 -22 0 -33 21 -40 74 -6 45 -6 48 9 36 12 -10 11 -2 -6 33 -13 26 -26
47 -30 47 -4 0 -5 14 -3 30 4 19 1 30 -7 30 -8 0 -6 6 4 18 21 23 22 33 2 26
-10 -4 -18 3 -25 21 -12 31 -8 41 19 48 20 5 27 -9 38 -78 9 -56 24 -52 19 5
-2 30 -5 55 -6 55 -1 0 -3 7 -5 15 -2 11 9 20 32 27 35 11 35 11 55 -33 10
-24 23 -44 28 -44 5 0 7 -6 4 -14 -3 -8 0 -17 6 -21 15 -9 40 13 33 31 -3 8
-8 12 -11 10 -6 -7 -32 13 -32 25 0 5 5 9 11 9 5 0 7 -4 4 -10 -3 -5 -1 -10 5
-10 13 0 4 57 -11 76 -6 8 -1 17 16 28 37 24 75 37 75 26 0 -20 3 -25 21 -38
11 -7 19 -18 19 -24 0 -6 -7 -5 -17 3 -15 12 -15 11 1 -13 10 -15 19 -33 21
-40 9 -37 18 -58 26 -58 12 0 12 0 -11 48 -22 45 -24 52 -12 52 4 0 13 -13 20
-30 15 -32 29 -40 29 -15 0 8 -4 15 -9 15 -4 0 -8 5 -8 12 0 6 -8 20 -17 30
-16 18 -14 18 27 -1 24 -11 57 -34 72 -52 43 -49 46 -25 4 40 -5 8 -10 29 -11
48 l-1 33 24 -23 c13 -12 38 -43 55 -69 16 -27 34 -48 37 -48 4 0 13 -13 20
-30 7 -16 16 -30 20 -30 4 0 10 -10 13 -22 4 -12 9 -19 13 -15 4 4 -1 20 -12
35 -11 15 -26 42 -33 60 -8 17 -16 32 -20 32 -4 0 -15 15 -26 33 -22 37 -34
52 -57 74 -9 9 -14 23 -10 31 3 10 1 13 -6 8 -6 -3 -14 3 -18 16 -4 13 -11 26
-16 29 -6 4 2 20 17 38 28 30 28 30 49 11 12 -10 48 -41 81 -68 33 -27 96 -95
140 -150 44 -55 86 -103 93 -106 7 -3 11 -2 10 2 -26 53 -36 69 -50 83 -10 9
-18 19 -18 23 0 3 -25 33 -56 65 -97 103 -123 135 -118 143 3 5 2 7 -3 6 -4
-2 -20 10 -36 25 -22 23 -25 31 -15 42 7 8 19 21 26 30 15 18 39 14 34 -4 -1
-7 2 -10 7 -6 6 3 17 -5 26 -19 9 -13 40 -37 70 -52 30 -15 64 -35 75 -46 11
-10 20 -16 20 -13 0 4 15 -10 34 -29 18 -20 39 -36 45 -36 7 0 10 -4 7 -8 -3
-5 18 -31 46 -58 29 -27 48 -43 44 -37 -5 9 -2 11 8 7 8 -3 12 -12 10 -19 -4
-10 3 -13 27 -10 25 4 30 2 21 -7 -7 -7 -12 -17 -12 -23 0 -5 5 -3 10 5 8 13
10 13 10 -1 0 -9 8 -23 17 -30 15 -12 16 -12 8 1 -6 8 -10 22 -11 30 -1 25
-16 50 -25 44 -5 -3 -9 1 -9 9 0 7 -11 23 -24 34 -18 16 -27 18 -37 9 -8 -6
-11 -7 -7 -2 10 13 -2 36 -18 36 -8 0 -14 3 -14 8 0 4 -31 31 -70 60 -38 30
-93 79 -121 110 -29 31 -56 56 -61 54 -13 -4 -68 27 -68 39 0 5 7 12 15 15 8
4 13 9 11 13 -9 13 11 32 26 26 21 -8 28 -37 15 -61 -10 -18 -9 -18 10 -1 11
9 24 17 30 17 6 0 39 -28 74 -61 51 -51 61 -57 55 -36 l-6 26 32 -17 c30 -15
68 -49 68 -59 0 -2 -5 -13 -10 -24 -8 -13 -7 -19 0 -19 6 0 13 6 16 14 5 13
54 11 54 -3 0 -4 25 -15 55 -25 30 -11 57 -27 60 -36 3 -9 23 -27 45 -39 23
-13 37 -27 34 -33 -4 -7 -2 -8 4 -4 7 4 12 3 12 -2 0 -5 8 -12 18 -14 11 -3
19 0 19 8 0 7 -4 11 -9 8 -4 -3 -19 6 -32 20 -13 14 -28 26 -33 26 -6 0 -17 7
-24 16 -9 11 0 9 26 -7 22 -12 53 -29 68 -37 16 -8 31 -20 34 -27 2 -8 11 -11
19 -8 8 3 14 0 14 -7 0 -6 5 -8 10 -5 6 3 10 1 10 -5 0 -6 5 -8 10 -5 15 10
12 25 -7 32 -10 4 -32 17 -49 30 -17 13 -36 23 -41 23 -6 0 -13 7 -17 15 -3 8
-9 14 -13 13 -14 -5 -118 52 -149 81 -16 15 -34 26 -40 24 -16 -5 -26 25 -15
44 7 14 11 13 30 -6 11 -11 21 -18 21 -14 0 4 7 -2 16 -13 8 -10 13 -13 9 -6
-8 17 6 15 33 -4 12 -8 22 -12 22 -7 0 4 4 4 8 -2 4 -5 26 -20 49 -32 30 -16
44 -20 49 -11 4 6 3 8 -3 5 -6 -4 -16 0 -23 8 -7 8 -17 15 -22 15 -17 0 -39
30 -32 42 5 10 4 10 -6 1 -10 -9 -20 -8 -44 4 -17 9 -34 21 -38 27 -4 6 -8 8
-8 3 0 -10 -110 64 -110 74 0 5 -6 6 -12 4 -15 -6 -78 30 -78 44 0 6 5 13 10
16 6 3 10 11 10 17 0 5 -9 0 -20 -13 -11 -14 -19 -18 -20 -11 0 7 -4 11 -9 7
-6 -3 -18 3 -28 14 -10 11 -34 23 -52 26 -47 8 -73 24 -65 38 4 7 15 23 25 37
9 14 17 27 16 30 0 3 3 15 7 28 9 28 30 26 110 -11 32 -15 62 -27 67 -27 5 0
9 -4 9 -8 0 -12 53 -41 86 -46 16 -2 49 -7 74 -10 72 -10 327 -82 348 -98 6
-6 12 -8 12 -5 0 4 18 0 39 -8 22 -7 42 -11 45 -8 3 4 6 0 6 -7 0 -7 3 -11 6
-7 4 3 22 0 40 -8 19 -8 34 -12 34 -9 0 8 -79 39 -211 84 -153 52 -256 95
-332 138 -43 25 -72 34 -115 37 -31 1 -64 5 -72 8 -8 3 -39 11 -67 17 -29 7
-53 17 -53 23 0 6 8 37 17 69 18 59 31 70 69 57 11 -4 43 -10 70 -13 27 -3 58
-7 69 -9 11 -1 26 -10 33 -19 19 -25 91 -65 132 -72 25 -4 46 0 71 13 23 12
57 19 99 20 36 1 79 1 95 2 48 0 137 -9 245 -26 14 -2 54 -7 90 -11 85 -9 83
-8 98 -17 7 -5 12 -3 12 7 0 10 -10 16 -27 17 -32 2 -44 3 -133 19 -36 6 -78
13 -93 15 -16 2 -40 6 -55 9 -15 3 -43 8 -62 11 -60 10 -151 35 -242 66 -73
25 -96 29 -135 23 -70 -11 -281 -3 -304 12 -4 2 -6 14 -3 27 3 12 6 48 8 80 2
32 6 61 10 64 8 8 239 8 341 -1 44 -3 105 -13 135 -22 71 -20 61 -20 160 9 47
14 110 28 140 32 30 4 58 9 61 11 3 2 33 6 65 9 60 5 128 12 199 20 22 2 99 7
170 11 72 4 148 8 170 9 22 2 51 3 64 4 13 1 21 4 18 8 -4 3 -58 5 -120 3
-188 -6 -639 -5 -692 2 -50 7 -73 11 -130 25 -34 8 -65 5 -80 -7 -34 -27 -212
-62 -387 -75 -40 -3 -84 -7 -98 -8 -19 -1 -25 3 -26 18 -4 58 -15 148 -20 156
-3 5 4 9 14 9 11 0 23 -8 27 -18 6 -15 8 -14 16 7 6 14 15 21 24 17 8 -3 17
-1 20 4 4 6 37 10 76 10 44 0 69 4 69 11 0 6 -7 9 -15 6 -8 -4 -17 -2 -20 4
-4 5 8 12 25 15 17 4 33 11 36 15 3 5 12 9 20 9 8 0 12 -4 9 -10 -3 -5 0 -7 9
-4 9 3 20 -3 28 -15 16 -26 28 -27 21 -3 -2 10 3 24 11 31 9 8 16 10 16 7 0
-4 10 -1 23 6 12 6 28 13 36 14 7 2 23 12 36 24 20 18 31 20 109 17 91 -4 87
-6 192 60 28 18 204 103 213 103 4 0 25 8 47 19 21 10 95 37 164 61 69 23 134
46 145 50 11 4 75 25 143 46 67 21 122 42 122 47 0 4 -10 5 -22 1 -39 -12
-122 -36 -138 -38 -8 -2 -22 -6 -30 -9 -24 -9 -103 -30 -125 -32 -11 -1 -27
-5 -35 -8 -22 -8 -137 -37 -190 -47 -25 -4 -56 -11 -70 -14 -101 -24 -189 -35
-302 -35 -62 -1 -91 -5 -101 -16 -8 -8 -17 -11 -21 -8 -3 4 -6 1 -6 -5 0 -19
-196 -132 -229 -132 -6 0 -26 -9 -46 -20 -19 -11 -35 -18 -35 -15 0 2 -16 -3
-35 -11 -46 -19 -53 -18 -50 10 2 13 -1 29 -6 37 -6 9 -8 0 -5 -28 4 -44 2
-47 -51 -58 -10 -2 -37 -10 -60 -19 -24 -8 -43 -13 -43 -9 0 3 -7 0 -15 -7
-16 -13 -16 -12 -50 80 -7 19 -24 57 -38 85 l-26 50 27 18 c15 10 43 25 62 34
19 9 52 27 73 40 20 13 37 21 37 17 0 -3 7 2 16 10 30 30 36 21 49 -84 19
-142 25 -141 19 3 l-5 116 31 16 c16 8 33 15 36 14 4 0 10 3 13 8 8 12 185 88
241 104 65 18 136 32 168 32 6 0 12 3 12 7 0 22 210 218 306 285 15 11 42 32
59 46 36 31 386 263 502 334 77 47 97 65 72 65 -11 0 -150 -79 -159 -91 -3 -3
-23 -16 -45 -28 -22 -12 -47 -26 -55 -31 -135 -86 -620 -323 -620 -303 0 3 -6
0 -14 -6 -8 -7 -35 -14 -60 -16 -25 -2 -56 -11 -68 -19 -12 -9 -29 -16 -38
-16 -9 0 -23 -9 -33 -20 -9 -11 -14 -20 -11 -20 4 0 -4 -9 -17 -19 -19 -15
-27 -17 -39 -8 -13 11 -13 10 -1 -6 12 -16 11 -21 -15 -49 -58 -62 -91 -92
-167 -146 -29 -20 -58 -42 -65 -49 -23 -22 -25 -15 -19 53 5 47 2 74 -7 93
-13 23 -43 126 -51 171 -4 21 107 120 134 120 6 0 11 4 11 9 0 5 9 13 20 16
11 3 27 13 35 21 18 18 35 10 35 -16 0 -10 5 -22 12 -26 7 -5 8 -3 3 7 -7 12
-6 12 9 0 10 -8 15 -23 13 -33 -3 -11 0 -18 9 -18 8 0 14 -6 14 -12 0 -7 11
-21 24 -30 l23 -17 -16 44 c-8 24 -19 41 -23 39 -9 -6 -28 37 -22 48 3 4 -5 9
-16 13 -33 11 -19 44 22 49 3 1 10 4 14 9 4 4 16 7 26 7 10 0 18 5 18 10 0 6
11 10 25 10 15 0 29 9 36 22 10 18 13 19 17 8 9 -29 46 -60 72 -60 14 0 36 -7
49 -16 22 -16 22 -16 9 5 -7 11 -16 21 -20 21 -5 0 -8 6 -8 14 0 21 -47 55
-69 49 -33 -9 -32 15 4 87 34 68 159 258 202 310 12 14 59 70 104 125 46 55
86 102 89 105 3 3 32 36 65 75 33 38 107 118 165 177 58 60 104 108 102 108
-2 0 18 18 43 40 25 22 43 40 39 40 -4 0 3 9 16 20 13 11 28 20 33 20 6 0 7 3
4 7 -8 7 34 39 47 35 5 -2 6 4 3 12 -4 9 -1 13 7 10 14 -5 116 85 116 104 0
19 -14 14 -39 -12 -13 -14 -32 -26 -42 -28 -10 -2 -141 -124 -291 -273 -150
-148 -309 -301 -352 -340 -43 -38 -84 -74 -90 -80 -6 -5 -32 -27 -58 -48 -26
-21 -53 -43 -60 -50 -32 -31 -120 -89 -125 -83 -4 4 -8 16 -10 27 -2 16 1 19
17 14 10 -3 28 -1 40 5 17 9 18 14 9 31 -7 14 -16 18 -27 14 -9 -4 -22 -9 -29
-12 -6 -2 -14 10 -18 29 -4 18 -18 57 -31 87 -29 66 -29 67 -1 75 30 8 83 53
74 63 -5 4 -11 3 -15 -3 -7 -10 -43 -27 -51 -24 -2 1 -8 -5 -13 -14 -5 -9 -14
-16 -19 -16 -16 0 -130 118 -121 124 5 3 9 19 10 36 1 53 95 316 178 500 41
91 310 627 362 723 33 58 38 77 24 77 -6 0 -39 -52 -98 -155 -6 -11 -29 -48
-50 -82 -21 -34 -63 -101 -93 -150 -91 -146 -204 -318 -213 -321 -4 -2 -8 -10
-8 -17 0 -7 -3 -15 -7 -17 -5 -1 -30 -36 -57 -77 -27 -40 -54 -78 -60 -85 -6
-6 -30 -37 -54 -69 -40 -54 -67 -68 -56 -29 2 9 -2 4 -10 -13 -8 -16 -15 -35
-16 -41 0 -7 -7 -15 -16 -18 -8 -3 -13 -10 -10 -15 4 -5 -6 -19 -20 -30 -15
-12 -23 -21 -18 -21 5 0 -3 -8 -19 -18 -15 -10 -24 -22 -20 -25 6 -7 -13 -11
-32 -7 -5 1 -7 -2 -2 -6 9 -10 -32 -54 -51 -54 -10 0 -13 8 -9 25 2 14 2 23
-1 20 -8 -7 -42 26 -42 41 0 7 -4 15 -9 19 -6 3 -8 -4 -6 -15 2 -12 1 -28 -2
-37 -5 -12 -10 -5 -18 23 l-12 39 1 -64 c1 -35 -4 -66 -9 -68 -13 -4 -51 69
-67 129 -7 29 -15 43 -19 36 -5 -7 -4 -17 0 -23 13 -16 42 -145 36 -156 -13
-20 -25 -6 -66 76 -23 47 -46 88 -50 90 -9 6 48 -155 62 -171 7 -8 6 -13 -3
-16 -13 -5 -27 13 -48 61 -6 14 -20 31 -31 39 -13 9 -19 21 -16 33 3 11 2 19
-2 19 -14 0 -2 219 19 355 5 33 12 78 15 100 3 22 8 51 11 65 11 57 13 69 18
105 6 34 60 307 73 360 2 11 6 29 8 40 2 11 23 97 45 190 23 94 48 197 56 230
8 33 16 68 19 78 2 9 6 21 9 25 7 12 18 92 12 92 -3 0 -8 -12 -12 -27z m-38
-1752 c-4 -5 0 -11 6 -14 9 -3 7 -9 -7 -20 -10 -8 -25 -13 -31 -10 -9 3 -10
-5 -4 -34 7 -29 5 -42 -7 -55 -9 -10 -19 -18 -23 -18 -9 0 -60 79 -60 94 0 28
15 25 33 -6 17 -32 18 -29 3 19 -5 17 -2 23 16 29 13 4 24 2 26 -5 2 -6 8 -11
13 -11 6 0 7 5 3 11 -3 6 0 15 7 20 18 11 32 11 25 0z m34 -1 c0 -5 -4 -10
-10 -10 -5 0 -10 5 -10 10 0 6 5 10 10 10 6 0 10 -4 10 -10z m-240 -26 c11
-12 11 -18 -2 -30 -14 -14 -16 -13 -20 15 -5 34 3 39 22 15z m35 6 c3 -5 1
-10 -4 -10 -6 0 -11 5 -11 10 0 6 2 10 4 10 3 0 8 -4 11 -10z m-566 -69 c30
-18 68 -43 86 -57 17 -13 39 -24 47 -24 17 0 28 -29 28 -77 0 -32 -1 -33 -43
-33 -24 0 -53 7 -67 17 -19 13 -42 16 -106 14 -45 -1 -84 1 -87 6 -3 5 10 41
29 82 25 55 31 77 24 91 -6 10 -10 21 -10 24 0 9 41 -9 99 -43z m579 22 c-1
-5 3 -18 10 -29 6 -12 9 -24 6 -26 -3 -3 2 -8 11 -11 14 -6 14 -4 0 23 -8 16
-15 32 -15 36 0 11 35 -28 50 -56 10 -19 10 -24 -4 -32 -22 -12 -90 -71 -94
-81 -2 -4 -9 -13 -15 -20 -26 -27 -55 -102 -64 -162 -9 -66 -9 -79 0 -108 8
-23 6 -31 -9 -42 -18 -13 -18 -14 3 -8 18 4 23 0 29 -23 4 -16 11 -34 16 -40
6 -8 -1 -19 -19 -34 l-28 -22 29 17 c28 17 30 17 43 -1 18 -24 16 -55 -3 -83
l-16 -23 -33 32 c-21 20 -31 38 -28 48 4 10 2 13 -5 8 -18 -11 -14 3 5 22 16
16 15 17 -2 20 -9 2 -21 -1 -24 -7 -4 -7 -14 3 -24 24 -15 32 -15 35 1 45 16
11 16 11 0 6 -21 -6 -25 0 -33 44 -3 18 -8 37 -11 42 -3 4 5 12 18 17 l23 10
-22 0 c-20 1 -23 6 -23 44 0 24 7 52 15 63 8 10 15 14 15 7 0 -14 38 -5 47 11
3 6 3 8 -2 4 -4 -4 -14 -1 -21 7 -8 7 -18 15 -24 17 -13 4 7 68 22 68 5 0 7 4
4 9 -5 8 20 47 51 79 7 8 18 22 23 33 14 26 22 24 61 -13 18 -18 27 -24 19
-13 -8 11 -22 27 -32 35 -19 17 -15 28 22 53 27 19 31 20 28 10z m652 -123 c0
-4 -7 -10 -15 -14 -8 -3 -15 -11 -15 -17 0 -8 4 -8 15 1 8 7 21 10 28 7 22 -8
58 -118 64 -193 l5 -71 -51 -31 c-28 -18 -53 -31 -55 -29 -2 1 -13 -6 -24 -16
-20 -18 -20 -18 -15 2 3 12 8 21 12 21 3 0 7 17 8 38 1 41 -7 28 -26 -44 -8
-29 -19 -44 -38 -53 -16 -8 -34 -16 -42 -20 -8 -4 -19 -25 -26 -48 -17 -58
-24 -66 -41 -52 -12 9 -13 9 -9 -2 8 -20 -45 -39 -130 -46 -56 -4 -73 -2 -83
10 -11 12 -7 16 25 23 45 9 41 8 76 22 15 7 37 21 49 32 l22 21 19 -23 c18
-23 18 -23 2 10 -14 29 -17 31 -31 17 -9 -8 -29 -22 -46 -31 -24 -13 -32 -13
-46 -2 -13 11 -14 11 -8 0 6 -9 1 -15 -15 -19 -34 -9 -34 -10 -38 35 0 7 -6
10 -11 7 -6 -4 -8 -15 -5 -25 3 -10 2 -21 -2 -23 -10 -7 -103 14 -103 23 0 3
8 15 18 26 9 10 31 38 48 61 17 24 34 40 37 36 4 -3 7 0 7 8 0 17 100 123 155
165 22 17 75 52 118 78 73 46 94 62 63 50 -14 -6 -14 9 0 88 4 24 8 48 9 53 1
6 3 15 4 20 2 11 91 -81 91 -95z m-524 15 c0 -14 -2 -25 -5 -25 -4 0 -6 -20
-6 -45 0 -35 -3 -44 -14 -40 -11 4 -12 3 -1 -10 10 -12 10 -18 -1 -32 -11 -13
-11 -15 -1 -9 10 6 9 -2 -3 -31 -9 -21 -16 -39 -16 -40 4 -16 -1 -34 -11 -45
-7 -7 -13 -17 -14 -23 -1 -29 -17 -85 -24 -85 -5 0 -10 -9 -12 -20 -2 -12 -7
-22 -13 -23 -13 -3 -55 74 -60 110 -2 15 -6 38 -9 51 -3 12 0 22 5 22 6 0 7 5
4 10 -10 17 15 111 28 103 6 -3 7 -1 3 6 -10 15 13 43 27 34 6 -3 7 -1 3 6 -9
13 52 81 72 81 7 0 20 7 28 15 20 19 20 19 20 -10z m-739 -157 c6 -5 47 -7 91
-4 43 2 84 1 91 -3 9 -6 10 -26 6 -72 -4 -35 -8 -66 -10 -70 -7 -10 -132 1
-181 16 -39 12 -51 12 -73 1 -14 -7 -41 -16 -60 -20 l-33 -6 7 46 c11 77 25
145 32 156 4 8 109 -28 130 -44z m365 -88 c-4 -59 -4 -60 -33 -60 l-29 0 15
38 c15 34 42 82 48 82 1 0 0 -27 -1 -60z m-52 -90 c-24 -15 -37 -11 -16 5 11
8 22 12 25 9 3 -3 -1 -9 -9 -14z m-141 -50 c-8 -35 -16 -85 -18 -113 -1 -5 -5
-6 -10 -3 -4 3 -7 18 -6 33 3 25 2 26 -8 9 -38 -60 -40 -61 -137 -62 -84 -1
-95 -3 -126 -27 -45 -37 -61 -35 -58 6 1 17 3 56 5 86 4 74 14 83 86 66 54
-13 61 -12 113 10 59 25 86 31 136 34 l32 1 -9 -40z m203 -11 c9 -23 2 -57 -9
-46 -3 3 -21 0 -39 -8 -19 -8 -34 -12 -34 -10 0 3 -12 0 -26 -5 -21 -8 -25 -8
-21 4 3 8 11 32 18 55 12 40 12 40 57 37 37 -3 47 -9 54 -27z m33 -79 c17 -34
19 -44 5 -35 -5 3 -10 2 -10 -4 0 -6 -18 -20 -40 -31 -22 -11 -40 -25 -40 -30
0 -6 -10 -10 -23 -10 -12 0 -29 -9 -37 -19 -7 -11 -16 -18 -20 -16 -3 2 -12
-5 -18 -16 -12 -19 -12 -19 18 -4 17 9 35 13 41 9 6 -3 13 3 16 14 3 13 16 23
33 27 15 3 36 15 46 26 9 10 23 19 31 19 7 0 13 5 13 11 0 5 5 7 10 4 19 -12
10 -21 -57 -60 -38 -21 -76 -45 -85 -53 -10 -8 -18 -11 -18 -6 0 5 -4 4 -8 -1
-4 -6 -28 -23 -54 -38 -38 -22 -48 -25 -48 -12 0 8 5 15 11 15 5 0 7 5 4 10
-4 6 3 35 14 65 12 30 20 56 19 58 0 1 2 12 6 24 6 19 61 49 108 58 10 2 26 8
35 14 27 15 31 14 48 -19z m-265 -92 c0 -16 -3 -19 -11 -11 -6 6 -8 16 -5 22
11 17 16 13 16 -11z m370 -98 c-30 -42 -266 -269 -281 -270 -3 0 -16 -9 -29
-20 -13 -11 -45 -28 -72 -38 -26 -9 -48 -20 -48 -24 0 -5 -4 -8 -9 -8 -9 0 -4
26 16 80 3 8 7 22 8 30 1 8 9 38 19 66 17 53 16 52 195 192 19 15 48 35 65 46
17 10 33 22 36 26 3 4 14 11 24 17 16 9 25 4 57 -30 37 -41 37 -41 19 -67z
m519 48 c-28 -56 -21 -51 -83 -54 -62 -2 -146 13 -146 27 0 10 1 10 53 14 45
3 122 24 157 42 39 20 42 16 19 -29z m-989 0 c-24 -40 -25 -79 -5 -119 15 -29
15 -30 -12 -40 -33 -13 -87 -23 -145 -28 -9 0 -29 -21 -44 -45 -16 -25 -31
-43 -34 -41 -6 4 -2 206 4 213 3 2 75 8 143 11 7 1 22 11 35 24 21 21 69 57
75 57 2 0 -6 -15 -17 -32z m625 -2 c18 -13 18 -15 2 -40 -15 -22 -21 -25 -37
-16 -23 13 -23 12 -8 45 13 29 17 30 43 11z m59 -31 c11 -8 28 -15 38 -15 14
0 18 -8 18 -32 -1 -33 -1 -33 -14 -9 -12 21 -14 22 -23 7 -8 -14 -14 -15 -41
-5 -37 13 -36 10 -20 44 13 29 16 30 42 10z m143 -37 c18 -1 35 -8 37 -15 7
-17 -22 -31 -54 -28 -14 2 -33 4 -42 4 -10 1 -18 9 -18 19 0 24 10 33 29 27 9
-2 31 -6 48 -7z m120 -5 c4 -11 -16 -22 -54 -29 -15 -3 -21 0 -19 13 4 27 65
40 73 16z m-1229 -30 c13 -215 14 -201 -21 -240 -37 -41 -67 -58 -119 -67 -34
-6 -38 -5 -38 14 0 11 5 20 10 20 6 0 10 7 10 15 0 8 -4 15 -10 15 -5 0 -10 9
-10 19 0 11 -5 23 -10 26 -6 4 -8 21 -5 38 7 38 10 116 4 136 -4 13 48 34 116
47 16 3 31 7 34 10 2 2 12 4 21 4 12 0 17 -10 18 -37z m862 22 c13 -16 0 -39
-40 -73 -8 -7 -15 -20 -15 -30 0 -12 -10 -18 -33 -20 -32 -3 -33 -2 -22 20 25
49 75 117 86 118 6 0 17 -7 24 -15z m-1136 -20 c2 -7 -2 -16 -11 -19 -19 -8
-47 25 -31 36 14 8 35 0 42 -17z m1244 -18 c6 0 12 -3 12 -7 0 -3 12 -6 28 -7
15 0 51 -1 80 -2 37 -1 54 -5 58 -16 8 -19 -15 -77 -27 -69 -5 3 -9 1 -9 -4 0
-9 -87 -123 -112 -147 -7 -7 -8 7 -4 45 10 84 17 132 22 160 3 14 3 22 -1 18
-4 -3 -17 -53 -30 -110 -40 -172 -44 -180 -130 -272 -22 -24 -52 -57 -67 -74
-29 -33 -63 -34 -54 -3 3 9 6 41 7 71 4 84 67 268 90 262 7 -2 9 5 5 22 -3 14
-2 27 3 30 4 3 18 32 31 65 l22 59 31 -10 c18 -5 38 -10 45 -11z m-1172 -36
c1 -39 -12 -50 -22 -19 -14 42 -11 62 9 55 7 -2 12 -18 13 -36z m-57 2 c5 -10
5 -26 0 -40 -8 -23 6 -73 21 -73 15 0 21 -82 8 -94 -7 -6 -11 -10 -9 -9 2 1
12 -2 22 -8 19 -10 26 -44 11 -53 -9 -6 -37 10 -38 21 0 4 -5 26 -12 47 -6 22
-9 43 -6 48 3 4 0 8 -7 8 -7 0 -10 3 -7 6 4 3 -2 36 -13 72 -11 37 -17 73 -14
80 6 18 32 15 44 -5z m896 -73 c-9 -14 8 -12 24 3 21 20 6 -20 -42 -110 -23
-43 -51 -95 -62 -116 -22 -41 -24 -42 -50 -24 -17 13 -17 16 10 73 26 55 111
184 121 184 3 0 2 -4 -1 -10z m127 -12 c4 -29 -50 -107 -74 -107 -10 -1 -19
-8 -19 -16 -1 -8 -2 -24 -3 -36 0 -11 -8 -26 -16 -32 -8 -7 -15 -19 -15 -27 0
-8 -6 -16 -12 -16 -38 -4 -38 -4 -26 -12 17 -11 -1 -36 -21 -29 -22 9 -20 18
9 61 14 20 25 39 25 42 0 3 16 30 35 60 19 30 35 59 35 64 0 6 4 10 9 10 5 0
14 14 21 30 15 36 47 41 52 8z m-458 -60 c-8 -29 -14 -63 -14 -75 0 -13 -6
-23 -14 -23 -11 0 -13 7 -6 30 5 18 5 30 -1 30 -5 0 -9 -9 -9 -19 0 -41 -9
-49 -46 -41 -47 11 -55 20 -17 20 25 0 35 7 52 35 11 19 25 35 32 35 6 0 9 7
5 15 -4 12 16 45 28 45 2 0 -3 -23 -10 -52z m850 -92 c-2 -34 -9 -75 -15 -93
-8 -26 -6 -46 14 -112 21 -68 23 -82 11 -92 -8 -6 -14 -8 -14 -3 0 5 -5 1 -11
-8 -5 -10 -14 -18 -19 -18 -6 0 -19 -8 -29 -17 -38 -35 -49 -42 -55 -36 -3 4
-6 1 -6 -7 0 -10 -3 -10 -14 -1 -22 18 -2 64 39 92 47 32 33 44 -15 14 -66
-42 -86 -32 -51 26 15 24 17 38 10 56 -5 13 -11 48 -14 79 -4 55 -4 55 43 98
132 121 133 121 126 22z m-951 -50 c12 -3 26 -5 30 -5 6 -1 4 -42 -3 -61 -1
-3 -2 -8 -2 -11 1 -4 -3 -22 -8 -40 -7 -22 -6 -29 0 -23 11 11 14 22 24 90 7
40 12 51 22 42 8 -9 -23 -120 -40 -136 -12 -12 -23 -12 -63 -3 -26 6 -66 12
-88 14 l-40 3 -1 64 c0 36 1 67 2 70 3 6 130 3 167 -4z m-187 -66 c2 -33 0
-60 -4 -61 -4 0 -42 -2 -85 -5 -43 -3 -89 -9 -102 -14 -22 -9 -25 -7 -25 15 0
14 8 29 20 35 11 6 20 8 20 4 0 -4 9 1 21 12 23 21 142 83 148 77 3 -2 6 -30
7 -63z m271 28 c-3 -8 -6 -5 -6 6 -1 11 2 17 5 13 3 -3 4 -12 1 -19z m-477 -2
c0 -2 -7 -9 -15 -16 -12 -10 -15 -10 -15 4 0 9 7 16 15 16 8 0 15 -2 15 -4z
m-40 -31 c0 -7 -26 -30 -57 -51 -32 -21 -60 -40 -63 -43 -3 -3 -18 -15 -35
-27 l-30 -21 -23 28 -22 27 27 19 c16 11 45 27 66 37 129 59 137 61 137 31z
m740 -22 c0 -2 -12 -25 -27 -51 -14 -26 -33 -59 -40 -74 -8 -16 -16 -28 -19
-28 -2 0 -29 13 -59 28 l-56 29 25 24 c50 50 176 102 176 72z m50 -29 c11 -13
10 -16 -7 -20 -14 -4 -20 -13 -19 -32 1 -15 -2 -32 -7 -39 -6 -8 -2 -10 14 -6
18 5 21 3 16 -10 -3 -9 -11 -34 -17 -56 -10 -37 -12 -40 -30 -28 -11 6 -18 17
-16 24 3 7 0 10 -7 8 -7 -3 -20 2 -30 9 -19 15 -17 22 36 103 15 24 27 47 27
53 0 15 26 12 40 -6z m-770 -13 c0 -5 -7 -14 -15 -21 -8 -7 -15 -10 -15 -7 0
4 -18 0 -40 -8 -49 -17 -44 -3 8 25 40 21 62 25 62 11z m1071 -4 c-6 -8 -9
-16 -6 -19 8 -8 14 -148 6 -148 -5 0 -19 14 -32 32 -13 17 -30 37 -37 44 -10
11 -10 17 0 34 7 11 16 20 20 20 5 0 18 11 30 25 22 26 40 36 19 12z m-1311
-57 c12 -12 18 -26 14 -32 -5 -7 -11 -5 -20 6 -8 11 -14 13 -19 7 -3 -6 -1
-11 4 -11 24 0 3 -26 -51 -61 -31 -21 -66 -46 -77 -56 -11 -10 -26 -23 -33
-29 -30 -25 -95 -103 -90 -108 3 -3 1 -6 -4 -6 -13 0 -34 21 -34 35 1 27 164
202 229 245 53 36 55 36 81 10z m273 -29 c-15 -14 -30 -26 -33 -26 -3 0 -13
-6 -23 -15 -10 -8 -21 -15 -25 -15 -36 -1 -253 -192 -267 -234 -3 -12 -10 -21
-15 -21 -5 0 -17 -14 -25 -30 l-16 -30 -47 27 c-26 15 -48 31 -50 35 -2 4 -9
8 -17 8 -7 0 -18 7 -25 15 -10 12 -9 16 4 21 9 3 14 9 12 13 -2 3 23 31 55 62
33 30 59 54 59 52 0 -2 32 19 71 47 39 27 75 47 80 44 5 -3 9 0 9 6 0 8 6 8
20 0 11 -6 18 -15 15 -21 -4 -5 -11 -6 -17 -3 -6 4 -6 -2 1 -15 14 -25 23 -28
14 -4 -5 12 -2 15 9 10 12 -4 14 -1 11 14 -3 10 -9 19 -14 19 -5 0 -9 4 -9 9
0 19 134 57 203 57 l48 1 -28 -26z m885 7 c17 -17 15 -38 -3 -38 -8 0 -15 -3
-15 -7 0 -12 -99 -113 -110 -113 -6 0 -10 3 -10 6 0 8 61 96 87 124 13 14 23
28 23 32 0 12 14 10 28 -4z m100 -102 c17 -24 32 -47 32 -52 0 -5 -13 -18 -30
-27 -16 -10 -30 -23 -30 -29 0 -6 7 -5 18 4 9 9 27 19 40 23 21 6 23 4 20 -22
-2 -19 -8 -28 -20 -27 -10 1 -18 -3 -18 -10 0 -13 -86 -69 -112 -73 -12 -2
-20 6 -24 22 -3 14 -9 25 -13 25 -3 0 -17 18 -31 40 -14 22 -28 40 -32 40 -18
0 -5 20 50 77 82 85 90 86 150 9z m202 -24 c0 -11 -81 -54 -88 -47 -3 2 11 12
31 20 21 8 37 20 37 25 0 6 5 10 10 10 6 0 10 -4 10 -8z m-1130 -23 c0 -6 -4
-7 -10 -4 -5 3 -10 1 -10 -6 0 -12 -110 -117 -115 -109 -5 9 -73 -93 -106
-158 l-31 -63 -37 22 c-20 12 -53 31 -73 42 -21 12 -38 24 -38 29 0 6 42 59
79 97 36 38 108 91 123 91 10 0 18 4 18 9 0 14 102 58 139 59 18 0 35 3 38 6
8 7 23 -3 23 -15z m285 -19 c3 -5 1 -19 -6 -32 -6 -12 -13 -41 -15 -65 -4 -55
-30 -154 -42 -162 -5 -3 -8 -17 -7 -31 2 -28 -4 -50 -14 -50 -4 0 -15 13 -24
30 -14 24 -18 51 -16 142 1 112 1 113 32 146 31 32 79 44 92 22z m123 -12 c23
-7 42 -17 42 -23 0 -6 -16 -34 -35 -62 -19 -29 -35 -57 -35 -62 0 -5 -3 -11
-7 -13 -5 -1 -24 -34 -43 -72 -19 -37 -41 -70 -47 -73 -7 -3 -13 -11 -13 -19
0 -39 40 7 87 101 35 69 81 152 103 185 14 20 18 21 31 8 8 -9 26 -19 39 -23
14 -4 33 -14 42 -23 16 -14 16 -16 -4 -46 -27 -38 -50 -56 -61 -49 -5 3 -3 10
4 15 11 8 11 9 -1 5 -8 -2 -15 -12 -15 -23 0 -10 -6 -18 -12 -17 -7 2 -13 -3
-13 -10 0 -7 -16 -31 -35 -53 -19 -21 -35 -42 -35 -46 0 -5 -5 -8 -11 -8 -5 0
-8 4 -4 9 3 5 1 12 -4 15 -5 4 -8 -5 -7 -19 2 -13 -1 -22 -5 -19 -5 3 -14 -6
-20 -20 -13 -27 -41 -42 -59 -31 -6 4 -8 11 -4 16 3 6 0 10 -7 8 -29 -3 -34 2
-36 39 -2 32 8 83 25 132 2 8 7 31 9 50 2 19 10 56 18 83 8 26 12 47 9 47 -3
0 -3 4 1 9 6 11 38 7 103 -11z m-268 -13 c0 -16 -18 -43 -52 -79 -29 -30 -54
-59 -55 -64 -1 -5 -16 -24 -33 -42 -17 -18 -28 -35 -26 -38 3 -2 17 10 32 28
27 32 28 32 36 10 5 -13 11 -20 14 -17 3 3 1 14 -5 26 -7 13 -8 22 -1 26 13 8
50 -13 47 -27 -1 -6 4 -12 11 -13 7 -2 8 -1 2 2 -5 2 -8 9 -5 13 3 5 -3 15
-12 22 -27 20 -25 32 12 68 40 39 37 50 37 -105 0 -88 1 -91 31 -117 19 -18
25 -28 16 -29 -8 0 -9 -3 -3 -5 12 -5 7 -54 -6 -54 -10 0 -20 26 -20 51 0 12
-4 17 -11 14 -6 -4 -8 -13 -5 -21 9 -22 -12 -26 -26 -4 -14 21 -43 27 -53 10
-3 -5 -1 -10 5 -10 6 0 8 -4 5 -10 -3 -5 0 -10 8 -10 8 0 17 -9 20 -20 4 -15
0 -20 -14 -20 -24 0 -24 -11 1 -40 25 -29 25 -34 0 -27 -11 3 -18 1 -14 -4 9
-16 -17 -10 -46 11 -15 11 -30 17 -34 13 -3 -3 -6 -1 -6 6 0 11 -47 36 -62 33
-5 -1 -8 2 -8 8 0 5 -7 10 -14 10 -8 0 -27 11 -42 25 -25 23 -29 50 -13 90 2
6 0 12 -5 15 -5 3 -10 -3 -12 -13 -3 -23 -23 -47 -39 -47 -7 0 -22 8 -33 18
-21 17 -21 17 -1 57 10 22 27 47 37 55 9 9 18 22 20 30 5 22 100 109 143 131
27 13 40 16 45 7 5 -7 3 -8 -7 -3 -11 7 -12 6 -2 -7 7 -8 10 -18 6 -21 -3 -4
-1 -7 5 -7 7 0 12 -9 12 -20 0 -12 7 -20 16 -20 14 0 15 2 3 18 -13 16 -13 16
5 2 18 -14 19 -14 6 10 -7 13 -19 30 -26 38 -22 21 -6 39 49 55 69 20 67 21
67 -8z m30 15 c0 -5 -2 -10 -4 -10 -3 0 -8 5 -11 10 -3 6 -1 10 4 10 6 0 11
-4 11 -10z m879 -107 c13 -27 32 -72 42 -100 17 -51 17 -53 -1 -63 -10 -5 -23
-10 -29 -10 -5 0 -22 -5 -38 -11 -15 -6 -28 -9 -29 -7 0 2 -8 -3 -17 -11 -15
-12 -17 -11 -17 8 0 32 51 241 59 241 4 0 17 -21 30 -47z m-80 -43 c-8 -56
-16 -105 -24 -140 -2 -8 -4 -19 -4 -24 -1 -4 -9 -6 -19 -4 -12 3 -19 0 -19 -9
0 -8 6 -12 15 -8 10 4 13 0 9 -15 -6 -22 11 -39 22 -21 9 14 100 31 106 20 9
-13 60 -2 57 12 -3 10 0 11 8 3 11 -11 26 -89 25 -138 l0 -28 -100 -4 c-55 -2
-109 -6 -120 -8 -19 -5 -21 -1 -20 73 0 44 -3 77 -6 75 -4 -2 -9 12 -11 31 -2
19 1 37 7 39 5 2 2 5 -9 5 -12 1 -16 6 -12 16 3 8 2 15 -3 15 -8 0 -12 12 -26
63 -2 4 -4 8 -5 10 -7 6 -6 46 1 42 4 -3 34 10 66 29 32 19 61 33 64 30 3 -2
2 -30 -2 -64z m-320 10 c17 -17 29 -36 25 -42 -4 -6 -3 -8 3 -5 20 12 33 -16
17 -37 -8 -11 -14 -14 -14 -8 0 7 -22 -4 -50 -24 -27 -20 -50 -33 -50 -29 0 3
-7 -1 -16 -9 -8 -9 -20 -14 -25 -11 -5 4 -9 2 -9 -2 0 -5 -9 -14 -20 -20 -19
-12 -19 -12 1 34 27 63 62 126 74 135 6 4 11 12 11 18 1 5 2 15 3 20 2 17 17
11 50 -20z m-1304 10 c-3 -5 -2 -10 4 -10 5 0 11 5 13 11 5 14 48 -6 48 -21 0
-5 6 -7 13 -4 8 3 20 -2 27 -11 7 -8 19 -15 26 -15 8 0 23 -9 33 -19 20 -20
20 -20 -4 -70 -14 -27 -32 -79 -41 -116 -15 -59 -19 -65 -38 -59 -11 4 -64 14
-116 23 l-95 16 3 29 c5 35 32 113 68 194 20 44 33 62 47 62 10 0 15 -4 12
-10z m1187 -77 c-10 -21 -33 -68 -52 -105 -19 -37 -36 -65 -38 -63 -3 3 -11 0
-19 -6 -7 -6 -13 -8 -13 -5 0 4 -7 0 -16 -8 -8 -9 -23 -16 -32 -16 -14 0 -15
2 -2 10 8 5 12 12 8 15 -3 3 -13 -1 -22 -10 -9 -9 -16 -12 -16 -6 0 15 49 65
57 58 3 -4 1 -7 -5 -7 -15 0 -15 -27 0 -36 7 -4 8 -3 4 4 -4 7 0 12 10 12 10
0 15 3 11 6 -3 4 1 13 9 21 8 8 12 19 9 24 -4 5 4 9 17 9 16 0 19 3 10 8 -10
7 -8 15 8 35 12 15 18 27 13 27 -4 1 3 7 17 15 14 8 21 14 16 15 -9 0 32 40
41 40 2 0 -4 -17 -15 -37z m908 -3 c0 -5 -4 -10 -10 -10 -5 0 -10 5 -10 10 0
6 5 10 10 10 6 0 10 -4 10 -10z m-683 -78 c15 -32 28 -59 29 -62 0 -3 8 -30
17 -60 9 -30 18 -68 20 -85 l4 -30 -101 2 c-55 1 -103 2 -106 3 -3 1 -14 3
-25 5 -11 2 -31 7 -45 11 -21 6 -23 5 -13 -7 21 -26 -25 -20 -52 7 l-24 24 27
7 c15 4 39 7 55 6 15 0 27 5 27 11 0 6 5 4 10 -4 8 -13 11 -13 22 -1 11 12 10
13 -2 7 -8 -4 -6 0 4 8 23 19 36 20 36 5 0 -5 -4 -7 -10 -4 -5 3 -10 -1 -10
-11 0 -13 3 -14 15 -4 8 7 15 19 15 26 0 8 6 11 17 7 12 -5 14 -3 8 7 -6 10
-3 12 13 8 12 -4 22 -2 22 3 0 5 5 9 11 9 5 0 7 -6 3 -12 -4 -7 4 -3 18 10 13
12 28 19 33 15 4 -5 5 -3 2 4 -5 8 -26 6 -80 -8 -39 -11 -79 -23 -87 -27 -8
-3 -19 -7 -25 -7 -5 -1 -17 -4 -25 -8 -26 -10 -74 -19 -105 -21 -30 -2 -80 26
-68 38 3 3 13 -3 21 -15 9 -13 18 -17 25 -11 7 5 32 15 57 22 45 13 54 16 78
18 6 1 12 10 12 20 0 13 -2 14 -9 4 -4 -8 -12 -13 -17 -12 -5 0 -18 -2 -29 -6
-11 -3 -24 -5 -29 -5 -5 1 -13 -4 -17 -11 -7 -10 -12 -9 -24 4 -8 10 -13 16
-9 14 3 -3 14 4 25 15 10 10 26 19 34 19 8 0 15 4 15 8 0 5 20 19 45 31 25 12
45 25 45 29 0 4 19 16 41 27 23 10 43 25 46 32 9 23 33 1 60 -55z m542 38
c-27 -14 -71 -21 -64 -10 3 5 15 10 26 10 10 0 19 4 19 10 0 5 7 7 16 3 13 -5
14 -7 3 -13z m-1685 -14 c21 -10 45 -24 53 -32 8 -8 23 -14 34 -14 22 0 26
-29 8 -62 -14 -26 -10 -28 52 -34 29 -3 57 -6 63 -7 6 -1 10 3 9 10 -2 7 20
-1 47 -17 28 -16 50 -27 50 -24 0 4 9 -4 21 -17 11 -13 18 -17 14 -9 -4 9 0 7
9 -4 8 -10 18 -16 23 -13 4 3 17 -1 28 -9 16 -12 17 -16 5 -27 -7 -6 -10 -7
-7 -1 3 6 0 11 -7 11 -8 0 -12 -7 -8 -15 3 -9 1 -13 -4 -9 -6 3 -44 -3 -85
-14 -40 -11 -83 -22 -94 -24 -91 -20 -125 -29 -125 -34 0 -4 -8 -7 -17 -7 -10
-1 -35 -4 -56 -9 -30 -6 -38 -4 -37 6 2 8 2 21 1 29 -1 13 -2 13 -11 0 -5 -8
-7 -23 -4 -32 3 -10 1 -19 -5 -19 -14 -2 -30 -6 -33 -9 -2 -1 -11 -3 -22 -5
-10 -2 -24 -9 -30 -16 -6 -7 -7 -10 0 -6 21 12 94 16 94 5 0 -7 5 -6 15 2 8 7
13 16 10 20 -3 5 4 6 15 3 13 -3 20 0 20 8 0 11 2 11 10 -1 8 -12 10 -12 10
-1 0 9 8 12 25 9 14 -3 25 -1 25 4 0 5 5 6 10 3 6 -4 17 -1 25 5 12 10 15 10
15 0 0 -10 3 -10 14 -1 11 9 15 9 19 -1 4 -9 6 -8 6 3 1 9 7 16 14 16 6 0 31
6 55 12 23 7 47 9 53 6 5 -4 16 -2 24 5 8 6 22 10 32 9 10 -2 27 2 38 8 27 15
67 19 84 9 10 -6 12 -5 7 2 -4 8 -2 10 8 6 9 -3 12 -12 9 -21 -4 -11 -2 -14 5
-9 21 12 13 -10 -28 -88 -22 -42 -36 -76 -30 -76 5 0 10 -7 10 -16 0 -8 4 -13
9 -10 5 4 4 -5 -2 -19 -7 -14 -15 -25 -19 -25 -5 0 -8 -9 -8 -20 0 -11 -4 -20
-10 -20 -5 0 -12 -11 -16 -25 -3 -14 -13 -25 -23 -25 -14 0 -14 -2 -1 -10 10
-6 11 -10 3 -10 -7 0 -13 -7 -13 -16 0 -8 -4 -13 -8 -10 -5 3 -9 0 -9 -7 0
-16 -54 -99 -70 -110 -26 -16 -10 -32 47 -52 82 -28 91 -34 85 -60 -3 -14 -7
-37 -10 -51 -5 -20 -10 -24 -23 -19 -9 4 -26 9 -37 10 -11 2 -29 6 -40 10 -18
6 -19 6 -2 -5 10 -6 30 -14 45 -16 49 -9 52 -21 27 -121 -21 -87 -21 -103 -5
-103 4 0 15 47 25 104 l17 104 41 -4 c38 -4 65 -22 49 -34 -7 -5 -12 -23 -16
-55 -1 -12 -5 -26 -9 -32 -4 -6 -3 -14 3 -18 5 -3 11 2 11 12 1 19 4 34 8 43
6 12 12 46 12 63 0 9 8 18 17 18 9 1 28 3 42 4 14 2 30 -1 37 -7 8 -6 15 -3
21 8 6 11 18 15 35 12 15 -3 24 -1 21 3 -3 5 5 9 18 9 13 0 28 4 34 9 5 5 26
13 47 16 32 6 36 5 31 -9 -8 -22 14 -112 43 -168 29 -59 29 -60 6 -69 -42 -17
-49 -10 -82 77 -18 47 -35 84 -37 82 -2 -3 5 -36 16 -74 11 -38 20 -80 20 -93
0 -23 -1 -24 -20 -6 -11 10 -21 14 -21 9 -1 -5 -5 7 -10 26 -30 131 -36 160
-31 165 3 3 0 5 -7 5 -12 0 -11 -10 5 -90 11 -56 11 -140 1 -147 -16 -10 -39
-12 -158 -16 -147 -5 -181 0 -174 24 4 11 2 19 -4 19 -6 0 -11 -9 -11 -19 0
-18 -3 -19 -62 -5 -35 8 -76 19 -93 25 -71 27 -105 43 -105 52 0 4 -4 6 -8 3
-11 -7 -37 11 -37 26 0 16 31 48 47 48 6 0 4 8 -6 19 -10 10 -13 21 -8 22 5 2
32 40 60 84 28 44 56 85 62 92 5 7 10 16 10 21 0 5 7 15 15 22 8 7 27 36 42
66 15 30 30 54 34 54 4 0 9 9 12 20 13 52 -8 23 -159 -220 -32 -52 -64 -99
-72 -103 -7 -5 -10 -12 -7 -18 4 -5 0 -12 -9 -15 -8 -3 -18 -18 -21 -34 -8
-36 -47 -48 -82 -25 -62 41 -171 145 -218 209 -28 37 -28 39 -10 52 10 8 24
14 29 15 6 0 19 2 29 4 10 2 21 -3 23 -10 3 -7 13 -16 22 -20 12 -4 10 1 -6
18 -27 28 -28 47 -4 47 11 0 33 -20 51 -45 35 -49 37 -50 47 -33 4 6 3 8 -3 5
-5 -4 -16 5 -23 18 -7 14 -17 25 -22 25 -4 0 -8 6 -8 14 0 8 -5 16 -12 18 -19
7 -3 22 74 74 40 26 78 52 83 57 6 4 55 40 110 79 55 38 102 74 103 79 2 5 10
9 18 9 8 0 14 5 14 10 0 6 6 10 13 10 18 1 69 49 62 60 -3 5 -13 3 -23 -5 -9
-8 -57 -44 -107 -79 -49 -36 -99 -72 -110 -81 -10 -8 -23 -15 -27 -15 -4 0
-34 -20 -65 -43 -105 -79 -166 -118 -174 -110 -4 4 -27 44 -49 88 -23 44 -38
69 -35 57 11 -38 55 -131 66 -137 22 -14 7 -53 -17 -42 -3 1 -12 -9 -19 -23
-8 -14 -14 -21 -15 -16 0 5 -11 -1 -24 -13 l-24 -22 -30 53 c-45 79 -82 174
-85 216 -2 31 2 37 26 46 21 8 34 7 50 -4 20 -12 21 -11 9 2 -10 13 -9 16 7
21 11 2 25 0 32 -7 9 -8 10 -8 5 1 -7 13 1 20 35 27 13 3 34 7 46 10 17 3 23
-1 28 -22 8 -34 57 -144 61 -139 2 2 -8 36 -22 76 -14 40 -24 81 -21 92 3 10
1 17 -3 14 -5 -3 -11 28 -15 68 -6 67 -4 112 11 202 10 64 78 220 92 213 4 -2
25 -12 46 -22z m1586 -5 c0 -14 -18 -23 -31 -15 -8 4 -7 9 2 15 18 11 29 11
29 0z m-145 -48 c-10 -9 -29 -18 -44 -19 -14 0 -30 -2 -36 -4 -35 -9 -21 5 20
20 67 24 81 24 60 3z m-1275 -44 c3 -3 14 -11 25 -17 17 -9 14 -11 -22 -10
-22 0 -46 -3 -51 -6 -11 -6 -7 38 4 56 5 8 28 -5 44 -23z m457 25 c-3 -3 -2
-16 3 -28 7 -18 4 -22 -14 -23 -11 0 -16 1 -10 3 6 3 9 16 6 29 -3 16 0 25 9
25 7 0 10 -3 6 -6z m-415 -26 c-7 -7 -12 -8 -12 -2 0 6 3 14 7 17 3 4 9 5 12
2 2 -3 -1 -11 -7 -17z m618 -54 c0 -2 -7 -4 -15 -4 -8 0 -15 4 -15 10 0 5 7 7
15 4 8 -4 15 -8 15 -10z m-1165 -19 c22 -3 58 -8 80 -10 93 -10 91 -8 85 -78
-3 -34 -3 -93 0 -130 5 -59 3 -70 -13 -78 -9 -6 -21 -8 -25 -5 -5 3 -27 -2
-50 -9 -23 -8 -48 -12 -57 -9 -8 3 -15 1 -15 -6 0 -7 -14 -10 -37 -8 -32 3
-38 7 -37 26 0 12 -2 22 -6 22 -4 0 -6 63 -5 141 1 106 5 143 15 149 8 5 17 7
20 5 3 -2 23 -6 45 -10z m1869 -148 c-7 -94 -9 -102 -30 -101 -10 0 -55 4 -99
9 -44 5 -84 9 -90 10 -5 0 -13 -4 -17 -10 -5 -6 -8 -5 -8 3 0 7 -5 10 -12 6
-6 -4 -8 -3 -5 3 7 11 19 68 21 98 1 11 4 25 8 30 3 6 58 11 122 12 l115 2 -5
-62z m-325 31 c7 -19 8 -57 2 -88 -1 -3 -10 -6 -21 -7 -11 -1 -18 2 -15 8 6 8
-11 13 -42 12 -7 -1 -13 3 -13 7 0 9 -53 28 -92 32 -10 1 -18 6 -18 10 0 4 -5
7 -12 6 -6 -2 -13 6 -15 17 -3 16 -2 17 6 5 6 -8 11 -10 11 -4 0 7 25 11 64
12 51 0 66 -3 71 -16 5 -14 7 -14 15 -2 6 9 10 10 10 3 0 -6 9 -11 19 -10 16
1 18 5 10 19 -7 12 -6 18 1 18 6 0 14 -10 19 -22z m-275 -30 c-5 -8 -2 -9 10
-5 10 4 33 0 52 -9 19 -9 40 -14 48 -11 8 3 20 0 26 -8 10 -12 8 -13 -12 -10
-64 13 -88 17 -95 17 -17 0 -43 20 -38 29 4 5 8 9 11 9 3 0 2 -5 -2 -12z m17
-71 c-10 -9 -11 -8 -5 6 3 10 9 15 12 12 3 -3 0 -11 -7 -18z m43 1 c-3 -4 8
-11 25 -14 17 -4 29 -11 28 -16 -1 -6 9 -12 23 -14 13 -3 28 -10 32 -17 6 -9
8 -9 8 0 0 6 -13 20 -30 30 -16 9 -30 21 -30 25 0 12 25 9 38 -4 9 -9 12 -9
12 -1 0 8 8 8 26 -2 17 -8 35 -10 54 -5 27 8 28 7 23 -23 -3 -18 -9 -40 -15
-50 -5 -10 -12 -30 -14 -44 -9 -49 -44 -109 -64 -110 -11 -1 -20 2 -20 6 0 5
-25 21 -56 36 -31 15 -65 36 -76 47 -10 10 -23 16 -27 13 -5 -2 -14 2 -21 10
-9 10 -9 15 -1 15 6 0 11 -5 11 -11 0 -5 4 -7 10 -4 8 5 95 -38 110 -55 5 -6
58 -30 65 -30 3 0 5 5 5 10 0 6 -7 10 -15 10 -8 0 -15 5 -15 10 0 6 -6 10 -14
10 -7 0 -25 11 -39 24 -14 13 -28 21 -31 18 -3 -3 -6 0 -6 6 0 6 -13 25 -30
42 -19 20 -30 25 -30 16 0 -8 9 -18 20 -21 21 -7 28 -25 10 -25 -5 0 -10 5
-10 10 0 6 -7 10 -15 10 -21 0 -70 46 -57 54 5 3 12 -1 16 -9 3 -8 11 -15 17
-15 8 0 7 6 -2 18 -12 15 -12 16 2 5 9 -7 18 -10 21 -8 8 8 58 -16 58 -27 0
-5 10 -6 22 -2 21 6 22 5 8 -11 -8 -11 -10 -16 -3 -12 6 4 14 1 16 -5 3 -7 6
-3 6 9 1 20 3 21 34 11 17 -6 36 -15 42 -19 12 -12 48 -11 40 0 -3 6 3 14 12
20 10 6 15 11 10 11 -4 0 -16 -6 -27 -12 -15 -10 -22 -10 -32 0 -6 6 -20 12
-31 12 -10 0 -15 5 -12 10 4 6 3 9 -2 8 -12 -4 -73 25 -73 34 0 5 -8 8 -17 8
-16 0 -16 -2 -3 -11 10 -7 11 -9 2 -7 -8 2 -13 7 -13 11 1 4 1 13 1 20 0 8 7
14 15 14 8 0 12 -4 9 -9z m394 -62 c26 -9 44 -11 56 -4 11 6 22 6 31 -2 9 -8
15 -8 20 0 11 17 26 0 19 -22 -3 -11 -7 -26 -9 -32 -8 -41 -19 -72 -28 -78 -9
-5 -107 22 -147 42 -32 16 -80 22 -80 10 0 -6 4 -9 9 -5 5 3 15 0 23 -7 7 -7
20 -14 27 -16 8 -2 30 -10 50 -19 20 -9 44 -15 55 -14 10 2 15 -2 12 -7 -3 -6
2 -8 13 -5 10 3 22 0 25 -6 4 -6 2 -11 -4 -11 -6 0 -9 -4 -6 -8 3 -5 -6 -32
-19 -61 l-24 -52 -31 16 c-16 8 -33 16 -37 16 -5 0 -12 7 -16 15 -4 8 -15 14
-22 14 -8 0 -15 3 -15 8 0 9 -81 35 -88 27 -7 -6 -12 -3 78 -48 79 -40 110
-60 110 -71 0 -3 -12 -3 -26 0 -22 6 -25 4 -18 -7 4 -8 -8 -2 -28 14 -20 15
-39 27 -43 27 -3 0 -31 16 -62 36 -47 30 -54 38 -43 48 20 15 76 132 85 176 4
19 9 38 11 42 6 9 75 0 122 -16z m-818 -36 c0 -9 3 -20 7 -24 4 -3 8 -14 9
-24 2 -9 8 -18 13 -20 6 -2 11 -13 11 -23 0 -14 4 -18 13 -13 7 5 6 0 -3 -11
-9 -11 -10 -16 -2 -11 11 6 17 -5 13 -26 0 -5 4 -8 9 -8 6 0 10 -14 10 -30 0
-17 9 -50 20 -72 11 -23 20 -50 20 -60 0 -10 4 -18 10 -18 12 0 4 44 -25 133
-12 37 -20 67 -18 67 9 0 33 -29 33 -40 0 -6 9 -30 20 -52 11 -23 20 -48 20
-55 0 -7 5 -13 10 -13 6 0 10 -9 10 -20 0 -11 4 -20 9 -20 14 0 9 18 -35 124
-13 32 -21 62 -18 67 3 5 -1 9 -8 9 -10 0 -9 3 2 10 10 6 20 3 33 -11 16 -17
46 -77 48 -96 1 -5 5 -7 10 -6 13 4 63 -88 61 -113 -1 -13 2 -25 7 -28 13 -8
1 80 -15 105 -3 6 -9 28 -11 48 -6 40 -19 61 -39 61 -7 0 -16 5 -20 12 -5 8
-2 9 12 4 10 -5 25 -9 31 -9 7 0 11 -2 9 -5 -3 -2 6 -15 20 -29 13 -13 24 -28
24 -33 0 -5 7 -16 16 -24 8 -9 11 -16 5 -16 -5 0 -14 8 -20 17 -5 10 -12 15
-15 12 -3 -3 2 -14 12 -25 9 -11 26 -38 38 -61 l21 -40 -31 -21 c-40 -27 -72
-39 -62 -24 5 8 2 10 -9 6 -9 -4 -23 3 -35 17 l-20 24 13 -27 c6 -15 19 -29
27 -31 25 -7 -59 -38 -112 -42 -34 -3 -52 1 -63 12 -15 14 -17 14 -21 -4 -3
-12 -17 -26 -31 -32 -21 -10 -28 -9 -39 6 -13 17 -14 17 -8 1 5 -16 -1 -18
-46 -18 l-52 0 7 43 c9 52 13 59 28 50 8 -4 7 -1 -1 9 -10 13 -11 25 -3 54 6
21 8 40 5 43 -8 8 -24 -22 -24 -46 0 -33 -13 -35 -73 -12 -44 17 -54 24 -50
40 3 10 10 19 15 19 5 0 6 5 3 10 -3 6 -2 10 3 10 5 0 15 12 23 28 8 15 26 45
41 66 16 21 28 45 28 53 0 7 4 13 8 13 4 0 16 15 26 33 11 17 28 42 39 55 11
12 17 22 13 22 -4 0 -1 6 6 13 17 19 38 17 38 -3z m300 -1 c0 -5 4 -8 9 -5 4
3 8 -4 7 -16 0 -11 8 -26 18 -32 11 -6 30 -20 43 -30 13 -11 29 -21 36 -22 7
-1 39 -16 70 -34 50 -28 55 -34 46 -51 -12 -24 -31 -15 -76 36 -18 20 -33 31
-33 25 0 -7 -8 -3 -17 7 -10 11 -37 35 -61 53 -24 18 -40 35 -37 38 3 3 -2 14
-12 24 -9 11 -11 18 -5 18 7 0 12 -5 12 -11z m-15 -59 c21 -16 34 -30 29 -31
-5 0 5 -5 23 -12 21 -8 50 -36 83 -81 53 -73 60 -89 33 -84 -9 2 -15 5 -12 8
2 3 -2 12 -9 20 -41 48 -52 64 -52 77 0 7 -4 13 -10 13 -5 0 -10 6 -10 14 0
14 -29 30 -38 21 -3 -3 -1 -5 5 -5 5 0 15 -12 22 -27 9 -21 -1 -14 -39 27 -47
50 -77 90 -67 90 2 0 21 -13 42 -30z m-26 -54 c9 -6 18 -10 21 -10 8 0 60 -47
105 -92 69 -71 68 -68 28 -103 -19 -17 -38 -31 -43 -31 -8 0 -21 32 -26 66 -1
11 -12 37 -23 58 -12 20 -21 43 -21 52 0 8 -5 12 -10 9 -6 -4 -9 -1 -8 7 2 7
-7 14 -20 16 -12 2 -20 8 -17 13 4 5 1 9 -4 9 -6 0 -11 10 -10 23 0 14 2 17 6
7 3 -8 13 -19 22 -24z m219 -86 c13 0 21 -21 14 -37 -7 -21 -16 -15 -36 22
-11 19 -23 35 -28 35 -5 0 -6 5 -3 10 4 7 14 3 25 -10 9 -11 22 -20 28 -20z
m-240 -5 c-3 -3 -9 2 -12 12 -6 14 -5 15 5 6 7 -7 10 -15 7 -18z m372 -15 c8
-11 22 -20 32 -20 10 0 18 -5 18 -12 0 -6 3 -9 6 -5 10 10 56 -18 87 -52 22
-26 26 -35 17 -51 -12 -23 -23 -25 -42 -7 -7 7 -28 22 -45 32 -18 11 -33 23
-33 27 0 4 -7 8 -15 8 -8 0 -15 3 -15 8 0 4 -9 13 -20 20 -19 12 -20 11 -8 -8
7 -11 15 -20 18 -20 7 0 56 -39 102 -80 l28 -25 -29 -32 c-16 -18 -32 -33 -35
-33 -9 0 -145 137 -141 142 2 1 -3 9 -11 16 -12 11 -13 9 -11 -7 2 -11 26 -46
55 -78 29 -31 52 -61 52 -66 0 -4 4 -6 9 -3 12 8 22 -20 15 -39 -4 -8 -11 -15
-16 -15 -6 0 -17 -8 -24 -17 -11 -17 -16 -14 -58 30 -25 26 -48 47 -52 47 -3
0 10 -22 30 -49 39 -53 43 -66 22 -74 -14 -6 -41 21 -58 59 -6 13 -15 24 -20
24 -4 0 -8 7 -8 15 0 8 -4 15 -9 15 -5 0 -14 14 -21 31 -8 19 -18 28 -27 25
-9 -4 -11 -1 -7 5 4 6 1 15 -5 19 -8 4 5 19 36 40 26 19 71 60 98 91 28 32 55
58 60 59 6 0 17 -9 25 -20z m287 -101 c25 -9 26 -11 10 -21 -23 -12 -47 -4
-47 17 0 18 1 18 37 4z m66 -49 c12 -12 32 -23 44 -26 13 -4 23 -10 23 -16 0
-5 -4 -6 -10 -3 -5 3 -20 8 -32 10 -13 3 -24 9 -26 15 -2 5 -10 10 -17 10 -7
0 -15 7 -19 15 -8 21 11 19 37 -5z m-578 -40 c-2 -4 3 -16 11 -26 9 -10 13
-13 9 -6 -3 6 -1 12 4 12 6 0 11 -6 11 -13 0 -7 13 -28 30 -47 16 -19 29 -39
30 -44 0 -6 10 -20 22 -33 19 -21 20 -25 7 -38 -13 -14 -17 -13 -36 9 -12 13
-19 27 -16 30 4 3 1 6 -6 6 -7 0 -9 5 -6 10 3 6 1 10 -5 10 -6 0 -10 6 -9 13
1 6 -1 20 -5 29 -6 14 -11 15 -21 5 -11 -10 -10 -15 2 -29 9 -10 13 -18 9 -18
-3 0 5 -18 20 -41 14 -22 23 -47 21 -53 -6 -15 -88 -56 -99 -50 -6 4 -24 40
-62 124 -32 71 -28 120 11 126 6 1 22 11 33 22 20 19 56 20 45 2z m735 -33
c63 -30 69 -35 54 -48 -14 -11 -23 -9 -69 16 -30 16 -51 33 -48 38 3 5 -1 13
-8 18 -30 19 3 7 71 -24z m-5 -247 c3 -5 1 -10 -4 -10 -6 0 -11 5 -11 10 0 6
2 10 4 10 3 0 8 -4 11 -10z m-705 -89 c0 -11 -4 -10 -15 5 -8 10 -14 26 -14
34 0 11 3 10 14 -4 8 -11 15 -27 15 -35z m785 39 c3 -6 -1 -7 -9 -4 -18 7 -21
14 -7 14 6 0 13 -4 16 -10z"/>
<path d="M3150 3809 c0 -12 40 -48 53 -49 5 0 1 7 -7 16 -9 8 -16 19 -16 24 0
4 -7 10 -15 14 -8 3 -15 1 -15 -5z"/>
<path d="M3136 3735 c-3 -9 -12 -12 -23 -9 -16 5 -16 4 1 -6 15 -10 20 -9 27
1 9 15 12 29 5 29 -2 0 -6 -7 -10 -15z"/>
<path d="M3116 3621 c-4 -5 1 -8 9 -7 21 3 31 16 12 16 -9 0 -18 -4 -21 -9z"/>
<path d="M3841 3756 c-10 -12 -8 -13 8 -9 12 3 21 9 21 14 0 14 -16 11 -29 -5z"/>
<path d="M3916 3602 c-3 -5 -16 -10 -28 -11 -13 -1 -36 -3 -53 -5 -16 -2 -42
-4 -57 -5 -16 -1 -28 -5 -28 -10 0 -6 10 -8 23 -5 12 2 49 7 82 10 58 6 85 17
73 29 -3 4 -9 2 -12 -3z"/>
<path d="M3943 3595 c0 -8 4 -12 9 -9 5 3 6 10 3 15 -9 13 -12 11 -12 -6z"/>
<path d="M3785 3504 c0 -20 -5 -38 -11 -42 -9 -5 -8 -10 2 -20 9 -8 14 -9 14
-2 0 6 5 8 10 5 6 -3 10 -1 10 4 0 6 -4 11 -9 11 -5 0 -8 16 -6 35 2 19 0 37
-4 40 -4 2 -7 -12 -6 -31z"/>
<path d="M3615 3511 c3 -11 1 -22 -4 -26 -7 -3 -8 0 -5 9 3 9 1 16 -6 16 -6 0
-8 -4 -5 -10 3 -5 1 -10 -5 -10 -6 0 -8 -4 -5 -10 3 -5 2 -10 -3 -10 -7 0 -16
-14 -40 -62 -2 -5 5 -8 15 -8 15 0 16 2 3 10 -13 8 -12 10 4 10 11 0 17 3 13
6 -7 8 44 65 53 59 4 -2 5 7 2 20 -2 14 -9 25 -14 25 -5 0 -7 -9 -3 -19z"/>
<path d="M3735 3460 c3 -5 8 -10 11 -10 2 0 4 5 4 10 0 6 -5 10 -11 10 -5 0
-7 -4 -4 -10z"/>
<path d="M3500 3442 c0 -5 7 -15 15 -22 8 -7 15 -9 15 -6 0 4 -7 14 -15 22 -8
9 -15 11 -15 6z"/>
<path d="M3445 3409 c-4 -6 -5 -12 -2 -15 2 -3 7 2 10 11 7 17 1 20 -8 4z"/>
<path d="M3482 3400 c0 -14 2 -19 5 -12 2 6 2 18 0 25 -3 6 -5 1 -5 -13z"/>
<path d="M3705 3400 c3 -5 8 -10 11 -10 2 0 4 5 4 10 0 6 -5 10 -11 10 -5 0
-7 -4 -4 -10z"/>
<path d="M3521 3383 c0 -10 4 -27 9 -38 8 -18 9 -17 9 8 1 15 1 30 2 34 0 4
-4 9 -10 11 -6 2 -11 -5 -10 -15z"/>
<path d="M3456 3374 c-9 -23 -8 -24 12 -23 9 0 12 3 5 5 -7 3 -9 12 -6 20 3 8
3 14 0 14 -3 0 -8 -7 -11 -16z"/>
<path d="M3408 3340 c-9 -16 -14 -31 -10 -34 3 -4 12 8 19 25 17 41 12 46 -9
9z"/>
<path d="M3495 3340 c-3 -5 -2 -10 4 -10 5 0 13 5 16 10 3 6 2 10 -4 10 -5 0
-13 -4 -16 -10z"/>
<path d="M3270 3646 c0 -2 7 -7 16 -10 8 -3 12 -2 9 4 -6 10 -25 14 -25 6z"/>
<path d="M2265 2840 c3 -5 8 -10 11 -10 2 0 4 5 4 10 0 6 -5 10 -11 10 -5 0
-7 -4 -4 -10z"/>
<path d="M3373 3046 c3 -8 -3 -31 -14 -52 -22 -44 -23 -47 -9 -39 6 3 10 -1
10 -10 0 -9 5 -13 10 -10 6 4 8 10 5 15 -3 4 -1 10 4 12 5 1 11 17 13 33 1 17
7 33 13 38 6 4 4 11 -5 17 -22 14 -33 12 -27 -4z"/>
<path d="M3319 2968 c-7 -23 -4 -35 7 -35 9 0 11 4 4 12 -5 7 -7 15 -3 18 3 4
3 7 0 7 -4 0 -7 -1 -8 -2z"/>
<path d="M3323 2908 c12 -6 15 -20 11 -51 l-4 -42 20 35 c29 52 26 69 -11 68
-23 -1 -27 -3 -16 -10z"/>
<path d="M2909 2503 c-13 -16 -12 -17 4 -4 16 13 21 21 13 21 -2 0 -10 -8 -17
-17z"/>
<path d="M1800 2360 c-9 -6 -10 -10 -3 -10 6 0 15 5 18 10 8 12 4 12 -15 0z"/>
<path d="M1736 2275 c-9 -26 -7 -32 5 -12 6 10 9 21 6 23 -2 3 -7 -2 -11 -11z"/>
<path d="M3162 2314 c-7 -8 -8 -14 -3 -14 10 0 25 19 20 25 -2 1 -10 -3 -17
-11z"/>
<path d="M2468 2253 c6 -2 9 -10 6 -15 -4 -7 -2 -8 5 -4 13 9 5 26 -12 25 -9
0 -8 -2 1 -6z"/>
<path d="M2478 2213 c7 -3 16 -2 19 1 4 3 -2 6 -13 5 -11 0 -14 -3 -6 -6z"/>
<path d="M2477 2179 c6 -23 9 -24 16 -5 3 8 0 17 -7 19 -10 4 -12 -1 -9 -14z"/>
<path d="M2496 2137 c3 -10 9 -15 12 -12 3 3 0 11 -7 18 -10 9 -11 8 -5 -6z"/>
<path d="M2748 2251 c-15 -26 -25 -51 -21 -55 3 -3 -2 -6 -11 -6 -19 0 -17
-22 2 -26 7 -1 8 0 3 2 -5 3 2 17 15 31 13 14 21 29 18 34 -3 5 -1 9 4 9 5 0
12 8 16 18 3 9 9 23 12 30 3 6 2 12 -3 12 -4 0 -20 -22 -35 -49z"/>
<path d="M2686 2151 c-4 -5 -2 -12 3 -15 5 -4 12 -2 15 3 4 5 2 12 -3 15 -5 4
-12 2 -15 -3z"/>
<path d="M2607 2053 c-12 -22 -16 -63 -7 -63 6 0 8 5 5 10 -3 6 -1 10 6 10 7
0 9 3 6 7 -4 3 -2 12 4 19 6 8 6 14 0 18 -5 4 -12 3 -14 -1z"/>
<path d="M2172 2214 c2 -11 11 -26 21 -35 9 -9 17 -24 17 -33 0 -9 5 -16 10
-16 6 0 10 -12 10 -26 0 -19 4 -25 15 -20 10 3 17 -3 21 -18 3 -13 17 -35 31
-48 25 -23 48 -65 44 -82 -1 -5 5 -6 14 -2 9 3 19 6 23 6 3 0 -2 6 -12 13 -10
8 -18 25 -18 38 0 17 -10 30 -29 42 -16 9 -29 23 -29 32 0 8 -4 15 -10 15 -5
0 -10 6 -10 13 0 8 -9 22 -20 32 -11 10 -20 22 -20 26 0 5 -8 18 -17 29 -10
11 -18 26 -18 32 0 6 -6 13 -13 16 -9 3 -12 -3 -10 -14z"/>
<path d="M2153 2144 c-3 -8 -12 -13 -19 -10 -7 3 -11 0 -8 -7 5 -11 134 -81
134 -73 0 3 -16 14 -35 26 -19 12 -32 27 -29 32 4 6 2 8 -4 5 -5 -4 -17 -4
-26 -1 -12 5 -13 10 -5 25 5 10 7 19 4 19 -3 0 -8 -7 -12 -16z"/>
<path d="M2352 2100 c14 -43 28 -47 15 -5 -6 19 -14 35 -18 35 -4 0 -3 -14 3
-30z"/>
<path d="M2370 2040 c0 -5 5 -10 10 -10 6 0 10 5 10 10 0 6 -4 10 -10 10 -5 0
-10 -4 -10 -10z"/>
<path d="M2901 2134 c-52 -40 -46 -46 7 -7 20 15 39 28 41 30 2 2 2 5 0 7 -3
3 -24 -11 -48 -30z"/>
<path d="M1620 2195 c-7 -9 -11 -17 -9 -20 3 -2 10 5 17 15 14 24 10 26 -8 5z"/>
<path d="M3003 2016 c6 -15 5 -17 -7 -7 -14 11 -46 5 -46 -9 0 -4 -13 -6 -30
-4 -22 3 -28 0 -24 -10 4 -10 13 -12 34 -6 16 4 31 6 34 2 3 -3 6 3 6 13 0 14
3 15 14 5 10 -7 21 -8 31 -3 15 9 15 11 -1 24 -16 13 -17 12 -11 -5z"/>
<path d="M2784 1862 c23 -26 26 -27 26 -5 0 9 -3 13 -7 10 -3 -4 -13 -1 -22 5
-10 8 -9 4 3 -10z"/>
<path d="M1885 1989 c-4 -6 -5 -12 -2 -15 2 -3 7 2 10 11 7 17 1 20 -8 4z"/>
<path d="M1930 1982 c0 -4 12 -8 28 -9 23 -1 24 -1 7 7 -26 11 -35 12 -35 2z"/>
<path d="M1850 1946 c0 -2 7 -7 16 -10 8 -3 12 -2 9 4 -6 10 -25 14 -25 6z"/>
<path d="M1780 1899 c0 -8 24 -13 58 -12 6 1 12 -2 12 -6 0 -4 19 -6 43 -6 23
1 47 -1 52 -4 19 -10 46 -11 40 -1 -3 5 -28 12 -55 16 -28 4 -50 9 -50 13 0 3
-23 6 -50 7 -28 1 -50 -3 -50 -7z"/>
<path d="M1850 1819 c0 -5 5 -7 10 -4 6 3 10 8 10 11 0 2 -4 4 -10 4 -5 0 -10
-5 -10 -11z"/>
<path d="M1886 1682 c-4 -7 -27 -17 -52 -23 -43 -11 -60 -26 -29 -26 8 0 15 4
15 8 0 4 9 6 20 4 11 -2 20 1 20 6 0 22 21 -5 47 -59 29 -60 53 -92 53 -72 0
6 -5 21 -12 33 -12 22 -18 42 -20 65 -1 6 -5 12 -9 12 -4 0 -6 11 -5 25 2 13
0 22 -5 20 -4 -3 -9 0 -11 7 -3 9 -6 9 -12 0z"/>
<path d="M2333 1590 c-9 -14 -10 -21 -1 -26 7 -4 8 -3 4 5 -4 6 0 14 8 17 9 3
16 10 16 15 0 15 -15 10 -27 -11z"/>
<path d="M2294 1535 c-9 -14 -14 -28 -10 -32 3 -3 6 -1 6 6 0 7 5 9 13 5 6 -4
9 -4 5 1 -4 4 -3 16 3 26 14 28 2 23 -17 -6z"/>
<path d="M1616 1497 c3 -10 9 -15 12 -12 3 3 0 11 -7 18 -10 9 -11 8 -5 -6z"/>
<path d="M2257 1468 c-10 -11 -17 -22 -14 -24 2 -2 12 5 22 16 23 26 16 33 -8
8z"/>
<path d="M1630 1461 c0 -6 4 -13 10 -16 6 -3 7 1 4 9 -7 18 -14 21 -14 7z"/>
<path d="M1650 1406 c0 -2 7 -9 15 -16 13 -11 14 -10 9 4 -5 14 -24 23 -24 12z"/>
<path d="M2093 1355 c0 -8 4 -12 9 -9 5 3 6 10 3 15 -9 13 -12 11 -12 -6z"/>
<path d="M1685 1340 c3 -5 8 -10 11 -10 2 0 4 5 4 10 0 6 -5 10 -11 10 -5 0
-7 -4 -4 -10z"/>
<path d="M2117 1329 c7 -7 15 -10 18 -7 3 3 -2 9 -12 12 -14 6 -15 5 -6 -5z"/>
<path d="M2177 1248 c-2 -7 -4 -15 -3 -18 0 -3 -9 -16 -21 -30 -13 -13 -29
-36 -35 -52 -7 -15 -17 -28 -21 -28 -5 0 -5 -4 -2 -10 3 -5 1 -10 -4 -10 -6 0
-11 -7 -11 -15 0 -8 -3 -14 -7 -14 -21 3 -43 -2 -43 -10 0 -5 9 -7 20 -4 12 3
20 2 18 -3 -2 -5 1 -9 7 -9 5 0 10 7 10 15 1 8 27 54 58 102 32 48 57 90 57
93 0 10 -18 5 -23 -7z"/>
<path d="M1853 1205 c0 -8 4 -15 8 -15 4 0 24 -17 45 -37 47 -48 41 -29 -8 26
-42 46 -45 47 -45 26z"/>
<path d="M1806 1185 c9 -14 18 -25 20 -25 2 0 -2 11 -8 25 -6 14 -15 25 -20
25 -5 0 -1 -11 8 -25z"/>
<path d="M1860 1135 c13 -14 26 -25 28 -25 3 0 -5 11 -18 25 -13 14 -26 25
-28 25 -3 0 5 -11 18 -25z"/>
<path d="M1950 1122 c0 -4 10 -13 23 -21 22 -14 22 -14 3 8 -20 22 -26 25 -26
13z"/>
<path d="M1915 1090 c9 -25 43 -42 51 -27 4 6 3 9 -1 4 -5 -4 -19 3 -32 15
-14 13 -22 16 -18 8z"/>
<path d="M2140 1000 c8 -5 20 -10 25 -10 6 0 3 5 -5 10 -8 5 -19 10 -25 10 -5
0 -3 -5 5 -10z"/>
<path d="M2053 985 c0 -8 4 -15 9 -15 4 0 8 4 8 9 0 6 -4 12 -8 15 -5 3 -9 -1
-9 -9z"/>
<path d="M2222 966 c7 -8 17 -12 22 -9 4 3 2 9 -5 14 -22 13 -31 11 -17 -5z"/>
<path d="M2110 966 c0 -2 7 -7 16 -10 8 -3 12 -2 9 4 -6 10 -25 14 -25 6z"/>
<path d="M2381 931 c-10 -7 -7 -9 12 -8 14 1 23 5 20 10 -6 9 -15 9 -32 -2z"/>
<path d="M2377 879 c7 -7 15 -10 18 -7 3 3 -2 9 -12 12 -14 6 -15 5 -6 -5z"/>
<path d="M1530 1669 c0 -5 5 -7 12 -3 7 5 9 2 5 -8 -4 -11 0 -15 11 -14 25 4
21 28 -5 32 -13 2 -23 -1 -23 -7z"/>
<path d="M1630 1660 c-12 -8 -12 -10 -1 -10 11 0 11 -3 0 -17 -13 -15 -12 -15
8 -3 11 8 19 20 16 27 -6 15 -4 15 -23 3z"/>
<path d="M1535 1620 c-8 -13 5 -13 25 0 13 8 13 10 -2 10 -9 0 -20 -4 -23 -10z"/>
<path d="M3028 1643 c6 -2 9 -10 6 -15 -4 -7 -2 -8 5 -4 13 9 5 26 -12 25 -9
0 -8 -2 1 -6z"/>
<path d="M2950 1597 c0 -7 9 -18 20 -25 17 -10 20 -10 20 4 0 8 -4 12 -10 9
-5 -3 -10 1 -10 9 0 9 -4 16 -10 16 -5 0 -10 -6 -10 -13z"/>
<path d="M3000 1561 c0 -13 39 -35 48 -27 3 3 0 6 -6 6 -6 0 -18 7 -26 16 -9
8 -16 11 -16 5z"/>
<path d="M3147 1449 c7 -7 15 -10 18 -7 3 3 -2 9 -12 12 -14 6 -15 5 -6 -5z"/>
<path d="M2483 1398 c-1 -18 -12 -78 -22 -113 -4 -16 -7 -40 -6 -52 1 -16 -5
-22 -26 -25 -16 -3 -31 0 -33 6 -2 6 -5 3 -5 -6 -1 -9 7 -17 17 -17 9 -1 41
-3 71 -5 29 -2 48 0 41 4 -7 4 -26 7 -41 6 -20 -2 -26 1 -19 8 5 5 10 22 10
37 0 15 6 30 13 32 9 4 9 6 -1 6 -9 1 -10 6 -3 19 13 24 23 112 13 112 -5 0
-9 -6 -9 -12z"/>
<path d="M2687 1323 c3 -16 6 -34 6 -40 0 -7 4 -13 8 -13 4 0 6 -8 4 -17 -3
-23 4 -35 16 -27 5 3 6 11 2 17 -4 7 -9 21 -11 32 -2 11 -5 27 -7 35 -2 8 -4
21 -4 28 -1 6 -5 12 -10 12 -5 0 -7 -12 -4 -27z"/>
<path d="M2558 1285 c-4 -4 -3 -18 3 -32 5 -13 9 -38 9 -54 0 -19 5 -29 14
-29 13 0 13 7 0 53 -8 28 -16 56 -17 60 -1 5 -5 5 -9 2z"/>
<path d="M2609 1243 c8 -15 8 -24 1 -28 -12 -7 -4 -25 11 -25 14 0 11 34 -7
56 -15 18 -15 18 -5 -3z"/>
<path d="M2646 1247 c3 -10 9 -15 12 -12 3 3 0 11 -7 18 -10 9 -11 8 -5 -6z"/>
<path d="M3142 1326 c7 -8 15 -12 17 -11 5 6 -10 25 -20 25 -5 0 -4 -6 3 -14z"/>
<path d="M3045 1280 c21 -24 26 -25 19 -6 -3 8 -13 17 -22 21 -13 5 -13 2 3
-15z"/>
<path d="M3076 1251 c-3 -5 2 -15 12 -22 15 -12 16 -12 5 2 -7 9 -10 19 -6 22
3 4 4 7 0 7 -3 0 -8 -4 -11 -9z"/>
<path d="M2966 1237 c3 -10 9 -15 12 -12 3 3 0 11 -7 18 -10 9 -11 8 -5 -6z"/>
<path d="M2980 1205 c0 -3 5 -11 10 -18 6 -7 17 -21 26 -32 13 -17 13 -16 0
12 -15 29 -36 52 -36 38z"/>
<path d="M2940 1170 c0 -5 5 -10 11 -10 5 0 7 5 4 10 -3 6 -8 10 -11 10 -2 0
-4 -4 -4 -10z"/>
<path d="M2786 1135 c4 -8 10 -15 15 -15 4 0 6 7 3 15 -4 8 -10 15 -15 15 -4
0 -6 -7 -3 -15z"/>
<path d="M2799 1093 c5 -10 9 -22 9 -28 0 -5 6 -11 14 -13 8 -2 9 0 3 5 -5 4
-10 14 -11 21 -2 27 -4 32 -14 32 -7 0 -7 -6 -1 -17z"/>
<path d="M2826 1022 c-3 -5 1 -9 9 -9 8 0 12 4 9 9 -3 4 -7 8 -9 8 -2 0 -6 -4
-9 -8z"/>
<path d="M2510 5699 c0 -11 4 -18 10 -14 5 3 7 12 3 20 -7 21 -13 19 -13 -6z"/>
<path d="M2508 5663 c7 -3 16 -2 19 1 4 3 -2 6 -13 5 -11 0 -14 -3 -6 -6z"/>
<path d="M2512 5555 c2 -52 6 -95 9 -95 4 0 6 43 5 95 0 52 -5 95 -9 95 -4 0
-7 -43 -5 -95z"/>
<path d="M2513 5435 c0 -8 4 -15 9 -15 4 0 8 7 8 15 0 8 -4 15 -8 15 -5 0 -9
-7 -9 -15z"/>
<path d="M2513 5395 c0 -8 4 -15 9 -15 4 0 8 7 8 15 0 8 -4 15 -8 15 -5 0 -9
-7 -9 -15z"/>
<path d="M3457 5369 c7 -7 15 -10 18 -7 3 3 -2 9 -12 12 -14 6 -15 5 -6 -5z"/>
<path d="M2513 5355 c0 -8 4 -15 9 -15 4 0 8 7 8 15 0 8 -4 15 -8 15 -5 0 -9
-7 -9 -15z"/>
<path d="M4504 5345 c-9 -19 -8 -22 5 -20 17 2 27 30 14 38 -5 3 -13 -5 -19
-18z"/>
<path d="M1544 5345 c3 -11 7 -31 10 -45 2 -14 9 -37 14 -51 6 -15 8 -30 5
-33 -4 -3 -2 -6 3 -6 5 0 10 -10 11 -22 1 -12 6 -33 11 -47 18 -48 35 -111 35
-126 0 -8 4 -12 8 -9 4 2 7 -4 7 -13 -2 -26 46 -223 69 -283 4 -8 7 -19 7 -25
5 -40 19 -72 31 -72 13 0 13 3 -1 18 -12 14 -13 18 -2 25 7 4 10 4 6 -1 -4 -4
0 -14 9 -23 14 -14 14 -17 0 -27 -9 -6 -15 -21 -14 -33 1 -23 12 -20 12 4 0
23 20 21 23 -3 2 -13 8 -23 13 -23 5 0 9 -12 9 -27 0 -20 3 -24 11 -16 8 8 5
24 -9 57 -12 25 -18 46 -15 46 3 0 1 6 -4 13 -15 19 -25 50 -170 512 -20 66
-38 122 -38 125 -10 41 -21 69 -32 85 l-15 20 6 -20z m206 -665 c0 -5 -5 -10
-11 -10 -5 0 -7 5 -4 10 3 6 8 10 11 10 2 0 4 -4 4 -10z"/>
<path d="M2517 5317 c-3 -7 2 -24 10 -38 9 -16 12 -17 7 -4 -4 11 -6 28 -6 38
1 20 -4 22 -11 4z"/>
<path d="M4492 5312 c-6 -4 -10 -17 -9 -29 1 -17 4 -20 15 -11 10 9 10 13 1
19 -8 5 -6 8 7 11 11 2 14 6 9 10 -6 4 -16 3 -23 0z"/>
<path d="M4454 5265 c-7 -14 -8 -27 -2 -33 10 -10 0 -42 -13 -42 -13 0 -11 14
3 28 8 8 8 12 1 12 -16 0 -25 -32 -13 -44 12 -12 40 17 40 41 0 7 5 13 11 13
8 0 7 6 -2 17 -8 9 -12 18 -11 20 2 3 2 6 0 8 -2 2 -8 -7 -14 -20z"/>
<path d="M4415 5171 c3 -5 -1 -11 -7 -14 -7 -3 -3 -4 10 -4 25 1 29 12 6 21
-8 3 -13 2 -9 -3z"/>
<path d="M4375 5069 c-4 -6 -5 -12 -2 -15 2 -3 7 2 10 11 7 17 1 20 -8 4z"/>
<path d="M2559 4778 c-5 -18 -6 -38 -1 -34 7 8 12 36 6 36 -2 0 -4 -1 -5 -2z"/>
<path d="M893 4535 c0 -8 5 -15 10 -15 6 0 7 -3 4 -7 -4 -3 4 -21 17 -38 14
-18 37 -54 52 -81 14 -27 50 -85 79 -129 28 -44 67 -106 85 -137 18 -31 43
-61 54 -68 12 -6 14 -9 4 -6 -15 4 -16 2 -6 -19 6 -14 15 -25 20 -25 5 0 7 -4
4 -9 -3 -5 1 -12 10 -15 10 -4 13 -2 8 6 -4 7 -3 8 5 4 7 -4 9 -17 6 -29 -4
-15 -3 -18 3 -9 7 11 14 8 29 -12 11 -14 23 -22 27 -19 3 3 6 -1 6 -10 0 -10
8 -26 18 -37 9 -10 28 -32 42 -47 14 -15 24 -31 22 -36 -1 -5 2 -6 8 -2 10 6
-17 54 -32 55 -3 0 -17 19 -31 43 -14 23 -34 51 -44 62 -10 11 -26 35 -36 53
-11 18 -60 94 -110 167 -82 119 -162 241 -207 315 -8 13 -22 32 -31 42 -13 15
-16 15 -16 3z"/>
<path d="M1828 4495 c-7 -7 3 -55 11 -55 4 0 7 -10 8 -21 2 -24 10 -35 19 -26
3 3 2 12 -2 19 -5 7 -10 22 -11 32 -2 11 -8 25 -13 31 -5 7 -7 15 -3 18 3 4 4
7 1 7 -2 0 -7 -2 -10 -5z"/>
<path d="M1776 4447 c3 -10 9 -15 12 -12 3 3 0 11 -7 18 -10 9 -11 8 -5 -6z"/>
<path d="M1790 4405 c0 -8 4 -15 10 -15 5 0 7 7 4 15 -4 8 -8 15 -10 15 -2 0
-4 -7 -4 -15z"/>
<path d="M1867 4363 c3 -10 9 -22 13 -28 4 -5 15 -31 25 -57 10 -27 22 -48 28
-48 5 0 4 7 -3 15 -7 8 -10 15 -7 15 4 0 -5 22 -18 49 -14 27 -25 54 -25 60 0
6 -4 11 -10 11 -5 0 -7 -8 -3 -17z"/>
<path d="M1930 4206 c0 -8 7 -16 15 -20 13 -4 14 -2 5 14 -13 23 -20 26 -20 6z"/>
<path d="M3987 4167 c-3 -9 -22 -25 -42 -34 -19 -9 -37 -24 -39 -32 -16 -59
-16 -71 -2 -71 25 0 68 44 71 73 2 16 9 34 15 42 7 8 10 20 8 27 -3 8 -7 6
-11 -5z"/>
<path d="M1968 4141 c9 -16 18 -28 20 -27 5 6 -21 56 -29 56 -5 0 0 -13 9 -29z"/>
<path d="M2656 4135 c4 -8 8 -15 10 -15 2 0 4 7 4 15 0 8 -4 15 -10 15 -5 0
-7 -7 -4 -15z"/>
<path d="M1990 4097 c0 -5 9 -20 20 -34 11 -14 20 -32 20 -39 0 -8 3 -14 8
-14 4 0 13 -13 20 -30 8 -16 18 -30 24 -30 7 0 5 7 -3 18 -8 9 -23 33 -34 54
-22 42 -54 87 -55 75z"/>
<path d="M2675 4092 c-7 -4 -1 -17 14 -32 l24 -25 -14 25 c-7 14 -12 28 -11
33 3 9 0 9 -13 -1z"/>
<path d="M3861 3997 c-13 -21 -12 -21 5 -5 10 10 16 20 13 22 -3 3 -11 -5 -18
-17z"/>
<path d="M1255 3940 c-3 -5 -1 -10 4 -10 6 0 11 5 11 10 0 6 -2 10 -4 10 -3 0
-8 -4 -11 -10z"/>
<path d="M2113 3894 c17 -24 34 -44 39 -44 11 0 -44 78 -59 84 -6 3 2 -15 20
-40z"/>
<path d="M1411 3781 c-1 -7 10 -26 24 -43 14 -16 25 -25 25 -20 0 5 -7 16 -16
23 -9 7 -20 22 -24 34 -5 11 -9 14 -9 6z"/>
<path d="M2136 3714 c-4 -9 -2 -22 2 -28 5 -6 8 -21 7 -33 -1 -13 3 -23 8 -23
6 0 7 -3 4 -7 -4 -3 -2 -11 3 -18 5 -6 10 -26 12 -43 1 -18 6 -32 10 -32 4 0
5 -6 2 -14 -3 -8 0 -17 5 -21 6 -3 8 -11 5 -17 -4 -7 -2 -8 5 -4 9 6 9 11 0
22 -9 11 -9 14 1 14 9 0 9 4 3 13 -6 6 -14 30 -18 52 -5 22 -10 49 -12 60 -3
11 -6 27 -7 34 -2 8 -8 17 -13 18 -6 2 -9 13 -6 23 6 24 -2 27 -11 4z"/>
<path d="M1481 3694 c20 -30 90 -106 94 -102 1 1 -22 30 -53 63 -30 33 -49 51
-41 39z"/>
<path d="M1692 3485 c14 -16 24 -38 23 -47 -2 -10 0 -20 4 -23 4 -2 7 7 7 21
-1 13 -15 37 -31 52 l-30 27 27 -30z"/>
<path d="M2050 3470 c0 -5 5 -10 11 -10 5 0 7 5 4 10 -3 6 -8 10 -11 10 -2 0
-4 -4 -4 -10z"/>
<path d="M2212 3397 c1 -15 6 -27 11 -27 4 0 5 -4 2 -10 -3 -5 1 -10 9 -10 13
0 14 4 4 28 -18 41 -28 49 -26 19z"/>
<path d="M2174 3316 c1 -8 5 -18 8 -22 4 -3 5 1 4 10 -1 8 -5 18 -8 22 -4 3
-5 -1 -4 -10z"/>
<path d="M2256 3318 c3 -5 11 -5 17 -1 7 4 6 0 -2 -10 -11 -14 -11 -17 1 -17
7 0 14 9 15 19 1 13 -4 19 -17 18 -10 -1 -16 -5 -14 -9z"/>
<path d="M2329 3310 c-1 -17 -1 -79 1 -102 2 -21 3 -20 10 5 5 15 5 40 1 55
-4 15 -6 33 -4 40 3 6 2 12 -1 12 -3 0 -6 -4 -7 -10z"/>
<path d="M2190 3260 c0 -5 5 -10 11 -10 5 0 7 5 4 10 -3 6 -8 10 -11 10 -2 0
-4 -4 -4 -10z"/>
<path d="M2276 3255 c4 -8 8 -15 10 -15 2 0 4 7 4 15 0 8 -4 15 -10 15 -5 0
-7 -7 -4 -15z"/>
<path d="M1760 3251 c0 -6 4 -13 10 -16 6 -3 7 1 4 9 -7 18 -14 21 -14 7z"/>
<path d="M2254 3241 c0 -11 4 -17 8 -15 8 5 12 -11 9 -29 -1 -5 3 -6 9 -2 6 4
5 16 -5 36 -18 34 -21 35 -21 10z"/>
<path d="M1800 3170 c6 -11 13 -20 16 -20 2 0 0 9 -6 20 -6 11 -13 20 -16 20
-2 0 0 -9 6 -20z"/>
<path d="M1750 3125 c0 -5 5 -17 10 -25 5 -8 10 -10 10 -5 0 6 -5 17 -10 25
-5 8 -10 11 -10 5z"/>
<path d="M1830 3100 c0 -5 5 -10 11 -10 5 0 7 5 4 10 -3 6 -8 10 -11 10 -2 0
-4 -4 -4 -10z"/>
<path d="M1780 3083 c0 -6 8 -17 18 -24 16 -13 16 -13 2 6 -8 11 -16 22 -17
24 -2 2 -3 0 -3 -6z"/>
<path d="M1860 3040 c0 -5 5 -10 11 -10 5 0 7 5 4 10 -3 6 -8 10 -11 10 -2 0
-4 -4 -4 -10z"/>
<path d="M3775 2969 c-4 -6 -5 -12 -2 -15 2 -3 7 2 10 11 7 17 1 20 -8 4z"/>
<path d="M1906 2955 c4 -8 11 -15 16 -15 6 0 5 6 -2 15 -7 8 -14 15 -16 15 -2
0 -1 -7 2 -15z"/>
<path d="M3847 2916 c-3 -8 2 -20 11 -27 14 -11 15 -11 5 0 -6 7 -9 20 -6 27
3 8 3 14 0 14 -3 0 -7 -6 -10 -14z"/>
<path d="M1873 2895 c0 -8 4 -12 9 -9 5 3 6 10 3 15 -9 13 -12 11 -12 -6z"/>
<path d="M3875 2860 c3 -5 8 -10 11 -10 2 0 4 5 4 10 0 6 -5 10 -11 10 -5 0
-7 -4 -4 -10z"/>
<path d="M1970 2851 c0 -7 -5 -9 -12 -5 -7 5 -8 3 -3 -5 5 -9 10 -10 18 -2 6
6 8 14 4 18 -4 3 -7 1 -7 -6z"/>
<path d="M920 2845 c0 -6 25 -27 55 -48 31 -21 55 -31 55 -24 0 7 -17 21 -37
32 -21 11 -41 24 -45 30 -5 7 -8 7 -8 0 0 -5 -5 -3 -10 5 -5 8 -10 10 -10 5z"/>
<path d="M1040 2767 c0 -9 10 -19 23 -23 12 -4 24 -10 27 -13 7 -10 101 -61
111 -61 5 0 9 5 9 10 0 6 -7 10 -15 10 -8 0 -15 5 -15 10 0 6 -9 10 -20 10
-11 0 -20 3 -20 8 0 4 -15 13 -32 21 -18 8 -41 21 -50 29 -16 14 -18 13 -18
-1z"/>
<path d="M1365 2670 c28 -27 57 -49 65 -49 10 0 11 2 2 6 -6 2 -10 9 -6 14 3
5 -1 9 -8 9 -8 0 -31 16 -52 35 -58 52 -58 42 -1 -15z"/>
<path d="M898 2688 c7 -9 26 -21 42 -28 17 -7 30 -17 30 -22 0 -5 5 -6 10 -3
6 3 10 1 10 -5 0 -6 5 -8 10 -5 6 3 10 1 10 -5 0 -6 5 -8 10 -5 6 3 10 1 10
-5 0 -6 4 -9 9 -6 5 3 12 -1 15 -10 3 -8 11 -12 17 -9 13 9 -2 19 -106 75 -44
24 -74 36 -67 28z"/>
<path d="M1216 2671 c-9 -14 12 -33 26 -25 4 3 8 -3 8 -12 0 -10 3 -15 6 -11
9 8 -6 48 -16 42 -5 -3 -10 0 -12 7 -3 9 -6 9 -12 -1z"/>
<path d="M1310 2646 c0 -14 29 -30 38 -21 3 3 0 5 -6 5 -7 0 -12 7 -12 15 0 8
-4 15 -10 15 -5 0 -10 -6 -10 -14z"/>
<path d="M1451 2587 c13 -13 27 -22 32 -20 4 2 7 -4 7 -15 0 -10 7 -19 15 -19
8 0 15 4 15 9 0 4 -5 8 -11 8 -5 0 -8 4 -4 9 3 5 -3 12 -14 16 -11 3 -22 12
-25 20 -3 8 -13 15 -22 15 -14 0 -13 -4 7 -23z"/>
<path d="M1316 2582 c-3 -4 4 -9 15 -9 23 -2 25 3 4 10 -8 4 -16 3 -19 -1z"/>
<path d="M1371 2558 c0 -13 3 -17 6 -10 4 10 8 10 21 0 12 -9 11 -6 -2 10 -24
27 -26 27 -25 0z"/>
<path d="M1626 2502 c-3 -5 1 -9 9 -9 8 0 12 4 9 9 -3 4 -7 8 -9 8 -2 0 -6 -4
-9 -8z"/>
<path d="M1428 2488 c12 -16 35 -18 48 -6 3 4 -2 5 -13 4 -10 -2 -25 2 -33 8
-13 9 -13 9 -2 -6z"/>
<path d="M1530 2485 c0 -5 5 -17 10 -25 5 -8 10 -10 10 -5 0 6 -5 17 -10 25
-5 8 -10 11 -10 5z"/>
<path d="M1660 2485 c0 -5 5 -17 10 -25 5 -8 10 -10 10 -5 0 6 -5 17 -10 25
-5 8 -10 11 -10 5z"/>
<path d="M3514 2333 c2 -9 8 -18 15 -19 6 -1 7 0 1 3 -5 2 -8 9 -5 13 3 5 1
11 -4 14 -5 4 -8 -2 -7 -11z"/>
<path d="M3536 2293 c6 -4 14 -15 17 -23 5 -11 6 -9 4 4 -1 11 -9 21 -17 23
-10 3 -11 2 -4 -4z"/>
<path d="M3555 2220 c3 -5 8 -10 11 -10 2 0 4 5 4 10 0 6 -5 10 -11 10 -5 0
-7 -4 -4 -10z"/>
<path d="M1331 2095 c24 -25 87 -46 74 -25 -3 5 -12 7 -19 4 -7 -3 -28 7 -47
22 l-34 27 26 -28z"/>
<path d="M995 2067 c-23 -13 -53 -20 -73 -18 -48 4 -38 -19 16 -37 23 -7 42
-18 42 -23 0 -15 57 -39 92 -39 18 0 48 9 67 21 35 21 44 21 161 0 108 -20
120 -21 120 -11 0 5 -10 10 -22 11 -13 0 -32 2 -43 5 -11 2 -36 6 -55 9 -61 8
-90 16 -90 25 0 4 -22 22 -50 40 -62 40 -112 45 -165 17z"/>
<path d="M4983 2013 c-7 -3 -13 -9 -13 -15 0 -7 5 -6 14 1 8 7 17 8 19 4 5 -7
27 -8 70 -4 4 1 7 5 7 9 0 9 -76 12 -97 5z"/>
<path d="M4741 1994 c0 -11 3 -14 6 -6 3 7 2 16 -1 19 -3 4 -6 -2 -5 -13z"/>
<path d="M4810 2000 c0 -5 5 -10 11 -10 5 0 7 5 4 10 -3 6 -8 10 -11 10 -2 0
-4 -4 -4 -10z"/>
<path d="M4880 2002 c-5 -2 -10 -8 -10 -13 0 -6 6 -7 12 -2 7 4 26 8 41 9 43
4 45 13 3 11 -20 -1 -40 -3 -46 -5z"/>
<path d="M3600 1966 c0 -2 8 -10 18 -17 15 -13 16 -12 3 4 -13 16 -21 21 -21
13z"/>
<path d="M3593 1754 c3 -3 2 -16 -3 -28 -8 -21 -6 -22 33 -21 23 1 48 -3 56
-9 10 -8 12 -6 10 8 -4 18 -15 23 -65 28 -13 1 -20 7 -17 15 3 7 -1 13 -8 13
-7 0 -10 -3 -6 -6z"/>
<path d="M3966 1742 c-3 -5 1 -9 9 -9 8 0 12 4 9 9 -3 4 -7 8 -9 8 -2 0 -6 -4
-9 -8z"/>
<path d="M3527 1713 c3 -7 6 -13 8 -13 2 0 5 6 8 13 3 8 -1 14 -8 14 -7 0 -11
-6 -8 -14z"/>
<path d="M4025 1720 c3 -5 8 -10 11 -10 2 0 4 5 4 10 0 6 -5 10 -11 10 -5 0
-7 -4 -4 -10z"/>
<path d="M4059 1708 c15 -21 31 -23 31 -6 0 6 -3 8 -7 5 -3 -4 -13 -1 -22 6
-14 11 -14 10 -2 -5z"/>
<path d="M3730 1689 c0 -5 5 -7 10 -4 6 3 10 8 10 11 0 2 -4 4 -10 4 -5 0 -10
-5 -10 -11z"/>
<path d="M4150 1680 c0 -5 6 -10 13 -11 6 0 26 -2 42 -4 24 -3 27 -2 12 6 -9
6 -21 8 -26 4 -5 -3 -12 -1 -16 5 -8 13 -25 13 -25 0z"/>
<path d="M4277 1649 c7 -7 15 -10 18 -7 3 3 -2 9 -12 12 -14 6 -15 5 -6 -5z"/>
<path d="M4315 1640 c3 -5 8 -10 11 -10 2 0 4 5 4 10 0 6 -5 10 -11 10 -5 0
-7 -4 -4 -10z"/>
<path d="M4341 1643 c-1 -18 13 -23 29 -11 12 8 12 9 -2 5 -9 -3 -19 -1 -22 6
-3 9 -5 9 -5 0z"/>
<path d="M4390 1626 c0 -2 7 -7 16 -10 8 -3 12 -2 9 4 -6 10 -25 14 -25 6z"/>
<path d="M4430 1621 c0 -5 7 -11 15 -15 8 -3 15 -1 15 3 0 5 -7 11 -15 15 -8
3 -15 1 -15 -3z"/>
<path d="M4505 1610 c-4 -6 -3 -10 2 -9 4 1 10 0 13 -1 16 -6 41 -7 35 -2 -4
4 -10 7 -13 7 -4 0 -12 4 -19 8 -6 4 -15 3 -18 -3z"/>
<path d="M4583 1603 c-7 -3 -13 -8 -13 -12 0 -10 39 -11 45 -1 6 10 -16 19
-32 13z"/>
<path d="M4630 1585 c0 -6 14 -12 30 -13 17 -1 30 2 30 7 0 5 -13 11 -30 13
-18 3 -30 0 -30 -7z"/>
<path d="M4701 1574 c0 -11 3 -14 6 -6 3 7 2 16 -1 19 -3 4 -6 -2 -5 -13z"/>
<path d="M4725 1570 c3 -6 20 -10 37 -10 38 0 34 5 -10 13 -21 4 -31 3 -27 -3z"/>
<path d="M4550 1489 c0 -5 5 -7 10 -4 6 3 10 8 10 11 0 2 -4 4 -10 4 -5 0 -10
-5 -10 -11z"/>
<path d="M3914 1458 c-4 -7 -4 -10 1 -6 4 4 16 3 26 -3 11 -5 19 -7 19 -5 0 3
-9 10 -19 16 -15 7 -22 7 -27 -2z"/>
<path d="M3971 1434 c0 -11 3 -14 6 -6 3 7 2 16 -1 19 -3 4 -6 -2 -5 -13z"/>
<path d="M3990 1426 c0 -2 7 -7 16 -10 8 -3 12 -2 9 4 -6 10 -25 14 -25 6z"/>
<path d="M4034 1398 c1 -7 13 -13 27 -13 13 0 26 -2 29 -5 6 -6 66 -29 93 -36
9 -2 26 -6 38 -9 12 -2 27 -9 35 -16 8 -6 14 -8 14 -4 0 4 7 1 17 -6 13 -12
15 -12 12 0 -5 13 -63 37 -110 45 -14 2 -44 13 -67 25 -23 12 -42 18 -42 14 0
-5 -5 -1 -10 7 -8 12 -11 13 -19 1 -6 -9 -10 -10 -14 -2 -4 7 -5 7 -3 -1z"/>
<path d="M3503 1333 c4 -6 21 -19 38 -27 28 -14 30 -14 27 2 -2 10 -11 16 -22
14 -9 -2 -25 3 -34 10 -10 8 -13 9 -9 1z"/>
<path d="M4310 1305 c0 -8 7 -15 15 -15 8 0 15 4 15 9 0 5 -7 11 -15 15 -9 3
-15 0 -15 -9z"/>
<path d="M3603 1288 c-3 -7 -1 -8 5 -4 7 4 12 2 12 -4 0 -6 4 -9 10 -5 5 3 16
-7 25 -22 9 -15 14 -21 12 -12 -4 12 1 15 20 13 14 -1 29 -8 33 -14 4 -6 9
-11 11 -9 11 6 48 -14 52 -29 3 -9 5 -4 6 12 0 16 4 26 9 22 4 -4 7 -11 7 -14
1 -16 18 -32 34 -32 10 0 24 -7 31 -15 11 -13 15 -13 21 -3 7 10 9 10 9 1 0
-13 59 -49 73 -45 4 1 7 -2 7 -7 0 -4 25 -19 55 -32 30 -13 55 -27 55 -31 0
-4 7 -4 17 -1 12 5 14 3 8 -8 -4 -8 -5 -11 0 -7 4 4 14 3 22 -3 8 -8 13 -8 13
-1 0 6 -20 20 -45 32 -28 13 -43 26 -38 33 3 7 2 9 -2 4 -5 -4 -17 1 -28 10
-11 10 -17 12 -13 5 4 -7 -14 0 -41 16 -26 16 -63 35 -80 43 -18 7 -33 17 -33
21 0 5 -8 8 -17 8 -9 0 -28 10 -41 23 -17 15 -26 18 -29 10 -3 -7 -9 -13 -14
-13 -6 0 -7 5 -3 12 5 8 2 9 -9 5 -10 -3 -17 -2 -17 3 0 5 8 11 18 13 13 4 11
5 -5 6 -13 0 -23 -4 -23 -10 0 -9 -4 -9 -14 0 -7 6 -25 12 -40 13 -14 1 -26 5
-26 9 0 12 -40 17 -47 7z"/>
<path d="M4350 1292 c0 -5 17 -14 39 -20 41 -13 68 -16 59 -6 -4 3 -9 5 -12 5
-3 0 -21 6 -40 14 -41 17 -46 18 -46 7z"/>
<path d="M3555 1260 c-3 -5 -1 -10 4 -10 6 0 11 5 11 10 0 6 -2 10 -4 10 -3 0
-8 -4 -11 -10z"/>
<path d="M3586 1262 c-2 -4 7 -13 21 -19 25 -12 25 -12 8 7 -20 22 -22 23 -29
12z"/>
<path d="M4470 1251 c8 -5 17 -8 21 -5 4 2 10 0 14 -6 3 -5 12 -10 18 -10 17
1 -24 24 -48 27 -16 2 -17 1 -5 -6z"/>
<path d="M3713 1195 c0 -8 3 -13 5 -10 3 3 11 0 19 -7 10 -8 17 -8 26 1 9 10
8 11 -7 5 -15 -6 -17 -4 -11 7 4 8 5 11 0 7 -4 -4 -13 -3 -20 2 -8 7 -12 5
-12 -5z"/>
<path d="M3787 1164 c6 -15 23 -19 23 -5 0 5 -7 11 -14 14 -10 4 -13 1 -9 -9z"/>
<path d="M3840 1135 c13 -14 26 -25 28 -25 3 0 -5 11 -18 25 -13 14 -26 25
-28 25 -3 0 5 -11 18 -25z"/>
<path d="M3795 1100 c3 -5 8 -10 11 -10 2 0 4 5 4 10 0 6 -5 10 -11 10 -5 0
-7 -4 -4 -10z"/>
<path d="M3870 1091 c0 -11 21 -29 35 -30 6 0 17 -6 26 -13 8 -7 22 -14 30
-16 7 -2 16 -7 19 -11 3 -3 27 -18 55 -31 27 -14 56 -31 63 -37 7 -7 22 -13
33 -13 10 0 19 -3 19 -7 0 -5 14 -16 32 -26 24 -14 34 -15 42 -6 8 9 7 10 -6
6 -11 -4 -19 1 -23 14 -4 11 -12 18 -18 16 -7 -2 -19 4 -27 13 -8 9 -31 24
-50 33 -19 10 -71 40 -115 67 -76 47 -115 61 -115 41z"/>
<path d="M3784 1036 c11 -9 24 -16 30 -16 12 0 7 5 -24 19 -24 11 -24 11 -6
-3z"/>
<path d="M3828 993 c7 -3 16 -2 19 1 4 3 -2 6 -13 5 -11 0 -14 -3 -6 -6z"/>
<path d="M4017 863 c-11 -11 -8 -20 7 -20 8 0 12 6 9 14 -6 15 -7 15 -16 6z"/>
<path d="M1920 820 c8 -5 20 -10 25 -10 6 0 3 5 -5 10 -8 5 -19 10 -25 10 -5
0 -3 -5 5 -10z"/>
<path d="M2231 668 c-17 -94 -25 -116 -50 -142 -60 -64 -77 -132 -49 -197 11
-24 14 -54 11 -92 -4 -42 -1 -57 8 -57 7 0 10 3 6 6 -3 4 0 19 8 35 8 15 15
35 15 44 0 9 16 32 35 52 19 20 32 39 30 44 -3 4 -1 10 4 13 13 8 3 63 -20
107 -10 20 -16 38 -14 41 5 5 30 122 39 183 4 22 9 48 12 58 3 9 1 17 -4 17
-5 0 -19 -50 -31 -112z"/>
<path d="M2797 746 c-3 -8 1 -20 9 -27 8 -7 13 -18 10 -26 -3 -7 -1 -13 5 -13
6 0 7 -4 4 -10 -3 -5 0 -10 7 -10 10 0 11 -2 0 -8 -14 -10 -6 -42 12 -42 6 0
4 -5 -4 -10 -9 -6 -10 -10 -3 -10 6 0 10 -9 8 -20 -3 -14 0 -18 8 -13 7 4 6 0
-2 -10 -11 -14 -11 -17 0 -17 9 -1 8 -5 -5 -15 -11 -8 -14 -15 -8 -15 8 0 12
-20 13 -57 1 -32 4 -49 6 -38 3 11 10 26 15 33 7 8 7 12 0 12 -6 0 -10 8 -9
18 1 15 36 27 38 12 8 -58 19 -77 16 -27 -2 32 -27 75 -27 45 0 -9 -3 -9 -12
0 -9 9 -8 18 2 38 13 24 13 28 -9 45 -20 17 -20 23 0 21 3 -1 6 6 6 13 0 10
-4 12 -12 5 -14 -11 -40 12 -28 24 12 11 13 46 2 46 -5 0 -8 4 -5 8 3 5 -3 21
-13 36 -14 21 -20 24 -24 12z"/>
<path d="M2830 743 c0 -3 7 -14 15 -23 21 -24 27 -60 12 -79 -10 -12 -9 -14 5
-8 19 7 44 -25 34 -42 -3 -5 1 -12 9 -15 12 -4 14 -10 5 -25 -7 -14 -7 -22 2
-27 7 -4 8 -3 4 4 -4 7 -2 12 3 12 6 0 11 -7 11 -15 0 -8 5 -15 10 -15 6 0 10
-14 10 -31 0 -17 4 -28 10 -24 6 3 10 -3 10 -15 0 -11 6 -23 14 -26 8 -3 12
-12 9 -21 -4 -9 1 -19 11 -25 9 -5 14 -13 11 -19 -4 -5 -1 -9 4 -9 13 0 14 5
2 28 -11 21 -23 52 -27 72 -2 8 -11 20 -20 27 -14 10 -14 13 -3 13 8 0 10 3 4
8 -6 4 -11 16 -11 27 0 11 5 23 11 27 5 4 -3 8 -20 8 -23 0 -27 3 -15 10 8 5
10 10 5 10 -6 0 -16 15 -24 33 -8 17 -19 43 -25 57 -6 14 -16 31 -23 38 -7 8
-11 18 -7 23 3 5 0 8 -8 7 -7 -2 -12 3 -10 10 1 6 -2 12 -8 12 -5 0 -10 -3
-10 -7z"/>
<path d="M2899 724 c-10 -13 -10 -17 1 -24 7 -4 10 -15 7 -23 -3 -9 1 -21 9
-27 8 -7 14 -19 14 -27 0 -8 4 -12 8 -9 10 6 9 42 -1 52 -4 4 -7 20 -7 35 0
34 -13 44 -31 23z m31 -64 c0 -5 -2 -10 -4 -10 -3 0 -8 5 -11 10 -3 6 -1 10 4
10 6 0 11 -4 11 -10z"/>
<path d="M3047 733 c-3 -4 4 -24 14 -43 13 -23 17 -27 13 -11 -3 13 -7 30 -8
37 -3 18 -13 27 -19 17z"/>
<path d="M2315 628 l-20 -21 21 11 c12 6 23 9 26 7 3 -3 5 2 5 10 0 20 -8 18
-32 -7z"/>
<path d="M2330 604 c0 -6 7 -19 16 -30 14 -18 14 -18 3 6 -14 31 -19 36 -19
24z"/>
<path d="M2675 471 c-3 -5 -2 -12 3 -15 5 -3 9 1 9 9 0 17 -3 19 -12 6z"/>
<path d="M2870 421 c0 -12 26 -32 32 -25 3 3 9 0 13 -6 3 -6 1 -9 -6 -8 -14 3
-19 -21 -8 -37 4 -5 10 -23 13 -40 3 -16 12 -59 21 -95 9 -36 18 -72 20 -81 2
-9 8 -34 14 -54 6 -21 8 -41 6 -45 -7 -12 13 -33 25 -25 11 7 10 30 -5 85 -3
8 -9 35 -16 60 -6 25 -13 54 -16 65 -2 11 -6 29 -8 40 -21 111 -33 150 -49
149 -9 -1 -16 4 -16 12 0 8 -4 14 -10 14 -5 0 -10 -4 -10 -9z"/>
<path d="M3020 323 c1 -5 8 -19 16 -33 10 -17 13 -18 8 -5 -3 11 -7 26 -7 33
0 6 -4 12 -9 12 -4 0 -8 -3 -8 -7z"/>
</g>
</svg>
